<?xml version="1.0" encoding="UTF-8"?>
<svg id="Calque_2" data-name="Calque 2" xmlns="http://www.w3.org/2000/svg" viewBox="0 0 155.84 73">
  <defs>
    <style>
      .cls-1 {
        fill: #f2f2f2;
      }

      .cls-2 {
        fill: #231f20;
      }
    </style>
  </defs>
  <g>
    <path class="cls-2" d="M89.95,10.8l-.58-.27-4,20.5-2.29,11.74,56.18,17.32.65.2,6.42,1.98.65.2v-.68c0-16.26-19.19-33.42-57.03-50.99ZM139.91,59.24l-1-.31-54.68-16.85,1.89-9.67.19-1,3.79-19.43c36.54,17.05,55.33,33.57,55.87,49.13l-6.06-1.87Z"/>
    <path class="cls-1" d="M139.91,59.24v-6.01l-53.6-21.82,3.79-19.43c36.54,17.05,55.33,33.57,55.87,49.13l-6.06-1.87Z"/>
  </g>
  <g>
    <path class="cls-2" d="M86.31,31.41l-.94-.38-2.29,11.74,56.18,17.32.65.2v-7.06l-53.6-21.82ZM84.23,42.08l1.89-9.67,52.79,21.49v5.03l-54.68-16.85Z"/>
    <polygon class="cls-1" points="138.91 53.9 138.91 58.93 84.23 42.08 86.12 32.41 138.91 53.9"/>
  </g>
  <g>
    <path class="cls-2" d="M70.47,31.03l-4-20.5-.58.27C28.05,28.37,8.86,45.53,8.86,61.79v.68l7.07-2.18,56.4-17.39.43-.13-2.29-11.74ZM16.93,58.93l-1,.31-6.06,1.87c.54-15.56,19.32-32.08,55.87-49.13l3.78,19.44.2.99,1.88,9.67-54.67,16.85Z"/>
    <path class="cls-1" d="M69.52,31.42L15.93,53.23v6.01l-6.06,1.87c.54-15.56,19.32-32.08,55.87-49.13l3.78,19.44Z"/>
  </g>
  <g>
    <path class="cls-2" d="M70.47,31.03l-.95.39L15.93,53.23v7.06l56.4-17.39.43-.13-2.29-11.74ZM16.93,58.93v-5.03l52.79-21.49,1.88,9.67-54.67,16.85Z"/>
    <polygon class="cls-1" points="71.6 42.08 16.93 58.93 16.93 53.9 69.72 32.41 71.6 42.08"/>
  </g>
</svg>