<?xml version="1.0" encoding="UTF-8"?>
<svg id="Calque_2" data-name="Calque 2" xmlns="http://www.w3.org/2000/svg" viewBox="0 0 454.23 160.9">
  <defs>
    <style>
      .cls-1 {
        fill: #f2f2f2;
      }

      .cls-2 {
        fill: #231f20;
      }
    </style>
  </defs>
  <g>
    <rect class="cls-2" x="288.72" y="82.56" width="1" height="5.62"/>
    <g>
      <path class="cls-2" d="M371.12,85.84l.33-.87-4.35-2.75-.51.76-.04.06,4.55,2.88.86.54.03-.07-.87-.55ZM291,34.21l-.5.84,3.16,1.99.25-.99-2.91-1.84ZM371.12,85.84l-.02.07-4.55-2.87,4.55,2.88.86.54.03-.07-.87-.55ZM371.12,85.84l-.02.07-4.55-2.87,4.55,2.88.86.54.03-.07-.87-.55ZM371.12,85.84l-.02.07-4.55-2.87,4.55,2.88.86.54.03-.07-.87-.55ZM371.12,85.84l-.02.07-4.55-2.87,4.55,2.88.86.54.03-.07-.87-.55ZM371.12,85.84l-.02.07-4.55-2.87,4.55,2.88.86.54.03-.07-.87-.55ZM371.12,85.84l-.02.07-4.55-2.87,4.55,2.88.86.54.03-.07-.87-.55ZM446.5,151.87c-.29-7.96-5.79-20.74-11.41-26.62-.09-.1-.19-.2-.29-.3l-57.16-36.08-5.4-3.41-.79-.49-4.35-2.75-2.72-1.72-5.4-3.41-50.44-31.83-.53-.34-6.86-4.33-1-.63-4.4-2.77h0s-1-.64-1-.64l-5.87-3.7-1-.63-4.39-2.78-1-.62-28.21-17.81-2.25-1.42-4.7-2.96h0s-.99-.63-.99-.63l.07,57.16.02,18.9v6.62h42.69l13.2,5.16,1.14.45,5.82,2.27,16.83,6.58,1.14.45,5.81,2.26,34.43,13.46,3.82,1.49,20.97,8.2,38.97,15.23,2.63,1.03,12.65,7.53-.03-.92ZM434.32,144.36l-3.07-1.2-1-.39-57.94-22.65-1-.39-3.82-1.49-1-.39h0s-39.59-15.48-39.59-15.48l-.29-.11-.79-.31h0s-22.66-8.86-22.66-8.86l-.54-.21-.59-.23-12.31-4.81-.32-.13-.09-.03h-41.87v-4.62s-.01-1-.01-1l-.09-74.25,4.69,2.96,30.46,19.22,5.39,3.4h0s2.62,1.66,2.62,1.66l3.16,1.99,2.09,1.32,5.4,3.41,8.92,5.63,2.95,1.87,7.06,4.45.85.53,22.53,14.22.85.54,21.39,13.5.84.53h.01l4.55,2.88.86.54,5.68,3.58,15.14,9.56.85.54,40.11,25.31.39.25c.13.13.26.26.38.4,5.23,5.57,10.3,17.15,10.93,24.88l-11.12-6.62ZM371.12,85.84l-.02.07-4.55-2.87,4.55,2.88.86.54.03-.07-.87-.55ZM371.12,85.84l-.02.07-4.55-2.87,4.55,2.88.86.54.03-.07-.87-.55ZM371.12,85.84l-.02.07-4.55-2.87,4.55,2.88.86.54.03-.07-.87-.55ZM371.12,85.84l-.02.07-4.55-2.87,4.55,2.88.86.54.03-.07-.87-.55ZM371.12,85.84l-.02.07-4.55-2.87,4.55,2.88.86.54.03-.07-.87-.55ZM291,34.21l-.5.84,3.16,1.99.25-.99-2.91-1.84ZM371.12,85.84l.33-.87-4.35-2.75-.51.76-.04.06,4.55,2.88.86.54.03-.07-.87-.55Z"/>
      <path class="cls-1" d="M445.44,150.98l-11.12-6.62-3.07-1.2v-5.43l-59.94-25.64v7.64l-3.82-1.49v-7.2l-78.1-28.95-41.96-.03-.09-74.25,4.69,2.96v11.07l34.57,19.7,3.88-6.47,3.17,2-1.9,7.42,71,43.29.4.24,3.39-4.98h.01l4.55,2.88-1.84,4.91,62.46,39.33,2.79-4.06c5.23,5.57,10.3,17.15,10.93,24.88Z"/>
    </g>
    <g>
      <path class="cls-2" d="M289.39,82.09l-41.96-.03h-1v6.62h42.69l13.2,5.16,1.14.45,5.82,2.27,16.83,6.58,1.14.45,5.81,2.26,34.43,13.46v-8.27l-78.1-28.95ZM326.9,102.37l-.29-.11-.79-.31-22.66-8.86-.54-.21-.59-.23-12.31-4.81-.32-.13-.09-.03h-41.87v-4.62s41.69,0,41.69,0l.59.22,76.77,28.46v6.11l-39.59-15.48Z"/>
      <polygon class="cls-1" points="288.72 83.06 288.72 87.68 247.44 87.68 247.43 83.06 288.72 83.06"/>
      <polygon class="cls-1" points="366.49 111.74 366.49 117.84 326.9 102.37 326.61 102.26 325.82 101.94 303.16 93.09 302.62 92.88 302.03 92.64 302.03 92.65 289.72 87.84 289.72 83.28 366.49 111.74"/>
    </g>
    <g>
      <path class="cls-2" d="M371.31,112.09v8.71l20.97,8.2,38.97,15.24v-6.51l-59.94-25.64ZM372.31,120.12v-6.51l57.94,24.78v4.38l-57.94-22.65Z"/>
      <polygon class="cls-1" points="430.25 138.39 430.25 142.77 372.31 120.12 372.31 113.61 430.25 138.39"/>
    </g>
    <g>
      <path class="cls-2" d="M288.88,32.87l-1-.63-5.39-3.41-28.21-17.82-2.25-1.42v12.25l34.57,19.7,3.88-6.47.02-.02.5-.84-2.12-1.34ZM286.24,40.19l-33.21-18.93v-9.85l34.85,22.01,1.76,1.11h0s-3.4,5.66-3.4,5.66Z"/>
      <polygon class="cls-1" points="289.64 34.54 286.24 40.19 253.03 21.26 253.03 11.41 287.88 33.42 287.88 33.43 289.64 34.54"/>
    </g>
    <g>
      <path class="cls-2" d="M365.38,81.03l-1-.62-4.4-2.77-1-.63-50.44-31.75-.53-.34-6.86-4.31-5.4-3.4-1-.63-.84-.53-.25.99v.03s-1.91,7.42-1.91,7.42l71,43.29.4.24,3.39-4.98h.01l.04-.06.51-.76h0s.04-.07.04-.07l-1.77-1.12ZM362.86,86.68l-22.02-13.42-.86-.53-22.49-13.72-.86-.52-23.72-14.46,1.63-6.4,1.21.76,14.32,9.01,2.95,1.87,7.07,4.44.84.53h0s22.55,14.2,22.55,14.2l.86.54,14.64,9.21,6.76,4.26-.04.05h0s-2.84,4.18-2.84,4.18Z"/>
      <polygon class="cls-1" points="365.7 82.51 362.86 86.68 340.84 73.26 344.31 69.01 365.7 82.51"/>
      <polygon class="cls-1" points="343.46 68.47 339.98 72.73 317.49 59.01 320.93 54.25 343.46 68.47"/>
      <polygon class="cls-1" points="320.08 53.72 316.63 58.49 292.91 44.03 294.54 37.63 295.75 38.39 310.07 47.4 313.02 49.27 320.08 53.72"/>
    </g>
    <polygon class="cls-2" points="321.21 53.86 320.93 54.24 320.93 54.25 317.49 59.01 317.17 59.45 316.36 58.87 316.63 58.49 320.08 53.72 320.09 53.71 320.4 53.28 321.21 53.86"/>
    <polygon class="cls-2" points="344.62 68.63 344.34 68.98 344.31 69.01 340.84 73.26 340.48 73.7 339.71 73.06 339.98 72.73 343.46 68.47 343.48 68.44 343.84 68 344.62 68.63"/>
    <g>
      <path class="cls-2" d="M377.64,88.79l-1-.64-4.4-2.78-.24-.15-.52-.33-.02.07h-.01s-.33.88-.33.88l-.02.07h0s-1.84,4.92-1.84,4.92l62.46,39.33,2.79-4.06.58-.85.06-.09-57.51-36.37ZM431.44,128.8l-40.4-25.44-.85-.53-19.71-12.41,1.48-3.96.03-.07.25.16,5.4,3.41,15.17,9.6.85.54,40.08,25.35-2.3,3.35Z"/>
      <polygon class="cls-1" points="433.74 125.45 431.44 128.8 391.04 103.36 393.63 100.14 433.74 125.45"/>
      <polygon class="cls-1" points="392.78 99.6 390.19 102.83 370.48 90.42 371.96 86.46 377.64 90.04 392.78 99.6"/>
    </g>
    <polygon class="cls-2" points="393.94 99.75 393.66 100.1 393.63 100.14 391.04 103.36 390.69 103.8 389.91 103.18 390.19 102.83 392.78 99.6 392.81 99.56 393.16 99.12 393.94 99.75"/>
    <g>
      <path class="cls-2" d="M275.04,87.68l.31,1,3.51,11.16,3.42-11.16.31-1h-7.55ZM278.85,96.47l-2.45-7.79h4.84l-2.39,7.79Z"/>
      <polygon class="cls-1" points="281.24 88.68 278.85 96.47 276.4 88.68 281.24 88.68"/>
    </g>
    <g>
      <path class="cls-2" d="M303.16,93.09l-.54-.21-.59-.24h0s.29,1.2.29,1.2l3.52,14.43,3.44-11.71.27-.92-6.39-2.55ZM308.33,96.23l-2.4,8.18-2.47-10.12,4.87,1.94Z"/>
      <polygon class="cls-1" points="308.33 96.23 305.93 104.41 303.46 94.29 308.33 96.23"/>
    </g>
    <g>
      <path class="cls-2" d="M326.9,102.37l-.29-.11-.79-.32h0s.29,1.2.29,1.2l3.51,14.42,3.44-11.71.27-.91-6.43-2.57ZM332.11,105.53l-2.4,8.18-2.46-10.12,4.86,1.94Z"/>
      <polygon class="cls-1" points="332.11 105.53 329.71 113.71 327.25 103.59 332.11 105.53"/>
    </g>
  </g>
  <g>
    <g>
      <path class="cls-2" d="M161.34,34.21l-2.91,1.84.25.99,3.16-1.99-.5-.84ZM85.75,82.98l-.52-.76-4.35,2.74.33.89-.86.54.03.07.86-.54,4.55-2.88-.04-.06ZM161.34,34.21l-2.91,1.84.25.99,3.16-1.99-.5-.84ZM85.75,82.98l-.52-.76-4.35,2.74.33.89-.86.54.03.07.86-.54,4.55-2.88-.04-.06ZM161.34,34.21l-2.91,1.84.25.99,3.16-1.99-.5-.84ZM85.75,82.98l-.52-.76-4.35,2.74.33.89-.86.54.03.07.86-.54,4.55-2.88-.04-.06ZM161.34,34.21l-2.91,1.84.25.99,3.16-1.99-.5-.84ZM85.75,82.98l-.52-.76-4.35,2.74.33.89-.86.54.03.07.86-.54,4.55-2.88-.04-.06ZM161.34,34.21l-2.91,1.84.25.99,3.16-1.99-.5-.84ZM85.75,82.98l-.52-.76-4.35,2.74.33.89-.86.54.03.07.86-.54,4.55-2.88-.04-.06ZM161.34,34.21l-2.91,1.84.25.99,3.16-1.99-.5-.84ZM85.75,82.98l-.52-.76-4.35,2.74.33.89-.86.54.03.07.86-.54,4.55-2.88-.04-.06ZM161.34,34.21l-2.91,1.84.25.99,3.16-1.99-.5-.84ZM85.23,82.22l-4.35,2.74.33.89-.86.54.03.07.86-.54,4.55-2.88-.04-.06-.52-.76ZM205.01,6.62h0s-4.7,2.97-4.7,2.97l-4.58,2.89-25.88,16.33-1,.63-4.4,2.78-1,.63-5.86,3.7-1,.63-4.4,2.78-1,.63-11.06,6.98-4.04,2.55-42.73,26.97-1,.62-4.4,2.78-2.73,1.72h0s-4.35,2.75-4.35,2.75l-.78.49h0s-4.4,2.78-4.4,2.78l-1,.63-53.8,33.96-3.28,2.07-.08.06c-.1.1-.2.2-.29.3-5.63,5.88-11.12,18.66-11.41,26.62l-.03.92,12.58-7.5,2.7-1.05h0s28.84-11.28,28.84-11.28l31.1-12.16,3.82-1.49,34.43-13.45h0s5.81-2.27,5.81-2.27l1.14-.45,16.83-6.58,5.81-2.27,1.14-.45,13.21-5.16h42.68v-6.62s.03-18.9.03-18.9l.07-57.16-.99.62ZM204.91,83.06v4.62h-41.88l-.41.16-12.32,4.82h-.01l-1.88.74-.09.03-21.8,8.52h-.01s-1.38.55-1.38.55l-1.4.55-37.88,14.8-1,.39-3.82,1.5-59.94,23.43-3.14,1.23-11.05,6.57c.63-7.72,5.7-19.3,10.93-24.87.12-.14.25-.27.38-.4l.39-.25,56.1-35.41,5.68-3.58.86-.54,4.55-2.88h.01l.84-.53,21.39-13.5.85-.54,22.53-14.22.85-.53,7.06-4.45,2.95-1.87,8.92-5.63,5.4-3.41,2.09-1.32,3.16-1.99,2.61-1.65,5.4-3.41,30.46-19.22,4.69-2.96-.08,67.78v6.47s0,1,0,1ZM85.75,82.98l-.52-.76-4.35,2.74.33.89-.86.54.03.07.86-.54,4.55-2.88-.04-.06ZM161.34,34.21l-2.91,1.84.25.99,3.16-1.99-.5-.84ZM85.75,82.98l-.52-.76-4.35,2.74.33.89-.86.54.03.07.86-.54,4.55-2.88-.04-.06ZM161.34,34.21l-2.91,1.84.25.99,3.16-1.99-.5-.84ZM85.75,82.98l-.52-.76-4.35,2.74.33.89-.86.54.03.07.86-.54,4.55-2.88-.04-.06ZM161.34,34.21l-2.91,1.84.25.99,3.16-1.99-.5-.84ZM85.75,82.98l-.52-.76-4.35,2.74.33.89-.86.54.03.07.86-.54,4.55-2.88-.04-.06ZM161.34,34.21l-2.91,1.84.25.99,3.16-1.99-.5-.84ZM85.75,82.98l-.52-.76-4.35,2.74.33.89-.86.54.03.07.86-.54,4.55-2.88-.04-.06ZM161.34,34.21l-2.91,1.84.25.99,3.16-1.99-.5-.84ZM85.75,82.98l-.52-.76-4.35,2.74.33.89-.86.54.03.07.86-.54,4.55-2.88-.04-.06ZM161.34,34.21l-2.91,1.84.25.99,3.16-1.99-.5-.84Z"/>
      <path class="cls-1" d="M205,7.81l-.08,67.78v6.47h-41.8l-78.27,28.98v7.2l-3.82,1.5v-7.65l-59.94,25.64v5.44l-3.14,1.23-11.05,6.57c.63-7.72,5.7-19.3,10.93-24.87l2.79,4.06,62.46-39.33-1.84-4.91,4.55-2.88h.01l3.38,4.98,71.4-43.53-1.89-7.42,3.16-2,3.89,6.47,34.32-19.56.25-.14v-11.07l4.69-2.96Z"/>
    </g>
    <g>
      <path class="cls-2" d="M163.12,82.06l-78.27,28.98v8.27l34.43-13.45h0s5.81-2.27,5.81-2.27l1.14-.45,16.83-6.58,5.81-2.27,1.14-.45,13.21-5.16h42.68v-6.62s-42.78,0-42.78,0ZM204.9,87.68h-41.87l-.41.16-12.32,4.82h-.01l-1.88.74-.09.03-21.8,8.52h-.01s-1.38.55-1.38.55l-1.4.55-37.88,14.8v-6.11l76.77-28.46.59-.22h41.7v4.62Z"/>
      <polygon class="cls-1" points="204.91 83.06 204.9 87.68 163.62 87.68 163.62 83.06 204.91 83.06"/>
      <polygon class="cls-1" points="162.62 83.28 162.62 87.84 150.3 92.66 150.3 92.64 148.41 93.4 148.32 93.43 126.52 101.95 126.52 101.94 125.13 102.5 123.73 103.05 85.85 117.85 85.85 111.74 162.62 83.28"/>
    </g>
    <rect class="cls-2" x="162.62" y="82.56" width="1" height="5.62"/>
    <g>
      <path class="cls-2" d="M21.09,137.73v6.51l28.84-11.28,31.1-12.16v-8.71l-59.94,25.64ZM22.09,138.39l57.94-24.78v6.51l-57.94,22.65v-4.38Z"/>
      <polygon class="cls-1" points="80.03 113.61 80.03 120.12 22.09 142.77 22.09 138.39 80.03 113.61"/>
    </g>
    <g>
      <path class="cls-2" d="M195.73,12.48l-25.88,16.35-5.4,3.42-1,.63-2.11,1.33.5.84v.02s3.9,6.47,3.9,6.47l34.32-19.56.25-.14v-12.25l-4.58,2.89ZM199.31,21.26l-33.22,18.93-3.39-5.66,1.75-1.11,34.86-22.01v9.85Z"/>
      <polygon class="cls-1" points="199.31 11.41 199.31 21.26 166.09 40.19 162.7 34.53 164.45 33.42 199.31 11.41"/>
    </g>
    <g>
      <path class="cls-2" d="M158.69,37.07v-.03s-.26-.99-.26-.99l-.84.53-1,.63-5.4,3.4-11.06,6.96-4.04,2.55-42.73,26.89-1,.63-4.4,2.77-2.33,1.47-.44.27.04.06h0s.52.77.52.77l.04.06h.01l3.38,4.98,71.4-43.53-1.89-7.42ZM112.36,72.73l-.86.53-22.02,13.42-2.84-4.17h0s-.04-.06-.04-.06l6.76-4.26,14.64-9.21.86-.54,22.55-14.19h0s.84-.54.84-.54l7.07-4.44,2.95-1.87,14.32-9.01,1.21-.76,1.63,6.4-23.73,14.47-.85.52-22.49,13.71Z"/>
      <polygon class="cls-1" points="159.43 44.03 135.7 58.5 132.26 53.72 139.32 49.27 142.27 47.4 156.59 38.39 157.8 37.63 159.43 44.03"/>
      <polygon class="cls-1" points="134.85 59.02 112.36 72.73 108.88 68.47 131.41 54.25 134.85 59.02"/>
      <polygon class="cls-1" points="111.5 73.26 89.48 86.68 86.64 82.51 108.03 69.01 111.5 73.26"/>
    </g>
    <polygon class="cls-2" points="135.97 58.87 135.16 59.45 134.85 59.02 131.41 54.25 131.41 54.24 131.13 53.86 131.94 53.28 132.25 53.71 132.26 53.72 135.7 58.5 135.97 58.87"/>
    <polygon class="cls-2" points="112.63 73.06 111.86 73.7 111.5 73.26 108.03 69.01 108 68.98 107.72 68.63 108.5 68 108.86 68.44 108.88 68.47 112.36 72.73 112.63 73.06"/>
    <g>
      <path class="cls-2" d="M81.24,85.92h-.01s-.02-.07-.02-.07l-.33-.89-.03-.07-.75.47-4.4,2.79-1,.63-53.8,34.04-3.28,2.07-.43.27.06.09.58.85,2.79,4.06,62.46-39.33-1.84-4.91ZM18.6,125.45l56.1-35.49,5.4-3.41.25-.16.03.07,1.48,3.96-60.96,38.38-2.3-3.35Z"/>
      <polygon class="cls-1" points="81.86 90.42 20.9 128.8 18.6 125.45 74.7 90.04 80.38 86.46 81.86 90.42"/>
    </g>
    <g>
      <path class="cls-2" d="M169.75,87.68l.31,1,3.42,11.16,3.51-11.16.31-1h-7.55ZM173.49,96.47l-2.39-7.79h4.84l-2.45,7.79Z"/>
      <polygon class="cls-1" points="175.94 88.68 173.49 96.47 171.1 88.68 175.94 88.68"/>
    </g>
    <g>
      <path class="cls-2" d="M148.41,93.4l-.09.03-5.53,2.21.27.92,3.44,11.71,3.51-14.43.28-1.18h.01v-.02l-1.89.76ZM146.41,104.41l-2.4-8.18,4.86-1.94-2.46,10.12Z"/>
      <polygon class="cls-1" points="148.87 94.29 146.41 104.41 144.01 96.23 148.87 94.29"/>
    </g>
    <g>
      <path class="cls-2" d="M125.13,102.5l-1.4.55-4.72,1.89.27.91h0s3.44,11.71,3.44,11.71l3.51-14.42.28-1.18h.01v-.02l-1.39.56ZM122.63,113.71l-2.41-8.18,4.87-1.94-2.46,10.12Z"/>
      <polygon class="cls-1" points="125.09 103.59 122.63 113.71 120.22 105.53 125.09 103.59"/>
    </g>
  </g>
</svg>