<?xml version="1.0" encoding="UTF-8"?>
<svg id="Calque_2" data-name="Calque 2" xmlns="http://www.w3.org/2000/svg" viewBox="0 0 217.83 171.52">
  <defs>
    <style>
      .cls-1 {
        fill: #f2f2f2;
      }

      .cls-2 {
        fill: #231f20;
      }
    </style>
  </defs>
  <path class="cls-2" d="M203.32,15.96l-3.42,2.16-53.16,33.54-58.1,36.58-.44.27.04.07-4.35,2.75-.03-.08-62.99,39.85-.23.15h0l-.43.27.06.1c-5.62,5.88-11.13,18.65-11.41,26.61l-.03.92,12.57-7.49,100.9-39.44,3.44,11.71,3.51-14.43,16.83-6.58,3.44,11.71,3.51-14.43,13.21-5.16h6.84l3.42,11.17,3.5-11.17h28.92l.1-82.68-5.69,3.6ZM200.93,18.65l1.39-.88v9.85l-33.22,18.93-3.39-5.65,35.22-22.25ZM146.77,52.83l14.04-8.84,1.63,6.4-23.73,14.46-3.44-4.76,11.5-7.26ZM134.42,60.62l3.44,4.76-22.49,13.71-3.48-4.25,22.53-14.22ZM111.04,75.37l3.46,4.24-22.01,13.43-2.84-4.17,21.39-13.5ZM83.39,92.83l1.48,3.95-60.96,38.38-2.3-3.35,61.78-38.98ZM83.04,126.48l-57.94,22.65v-4.37l57.94-24.79v6.51ZM125.64,120.07l-2.41-8.18,4.87-1.94-2.46,10.12ZM149.42,110.77l-2.41-8.17,4.87-1.95-2.46,10.12ZM165.63,94.2l-12.32,4.81-.87.34-22.91,8.96h0s-.92.36-.92.36l-39.76,15.54v-6.11l76.78-28.46v4.56ZM176.5,102.83l-2.39-7.79h4.84l-2.45,7.79ZM207.91,94.04h-41.28v-4.62h41.28v4.62ZM207.92,88.42h-41.79l-78.28,28.98v7.21l-3.81,1.49v-7.65l-59.94,25.64v5.44l-3.14,1.23-11.05,6.58c.63-7.74,5.71-19.31,10.93-24.87l2.79,4.05,62.46-39.32-1.84-4.92,4.55-2.87,3.39,4.98,71.4-43.53-1.9-7.45,3.16-2,3.9,6.5,34.31-19.57.26-.14v-11.06l4.69-2.96-.09,74.24Z"/>
  <polygon class="cls-1" points="128.1 109.95 125.64 120.07 123.23 111.89 128.1 109.95"/>
  <polygon class="cls-1" points="151.88 100.65 149.42 110.77 147.01 102.6 151.88 100.65"/>
  <polygon class="cls-1" points="202.32 17.77 202.32 27.62 169.1 46.55 165.71 40.9 200.93 18.65 202.32 17.77"/>
  <polygon class="cls-1" points="162.44 50.39 138.71 64.85 135.27 60.09 146.77 52.83 160.81 43.99 162.44 50.39"/>
  <polygon class="cls-1" points="137.86 65.38 115.37 79.09 111.89 74.84 134.42 60.62 137.86 65.38"/>
  <polygon class="cls-1" points="114.5 79.61 92.49 93.04 89.65 88.87 111.04 75.37 114.5 79.61"/>
  <polygon class="cls-1" points="84.87 96.78 23.91 135.16 21.61 131.81 83.39 92.83 84.87 96.78"/>
  <polygon class="cls-1" points="83.04 119.97 83.04 126.48 25.1 149.13 25.1 144.76 83.04 119.97"/>
  <polygon class="cls-1" points="165.63 89.64 165.63 94.2 153.31 99.01 152.44 99.35 129.53 108.31 129.53 108.3 128.61 108.67 88.85 124.21 88.85 118.1 165.63 89.64"/>
  <polygon class="cls-1" points="178.95 95.04 176.5 102.83 174.11 95.04 178.95 95.04"/>
  <rect class="cls-1" x="166.63" y="89.42" width="41.28" height="4.62"/>
  <path class="cls-1" d="M208.01,14.18l-.09,74.24h-41.79l-78.28,28.98v7.21l-3.81,1.49v-7.65l-59.94,25.64v5.44l-3.14,1.23-11.05,6.58c.63-7.74,5.71-19.31,10.93-24.87l2.79,4.05,62.46-39.32-1.84-4.92,4.55-2.87,3.39,4.98,71.4-43.53-1.9-7.45,3.16-2,3.9,6.5,34.31-19.57.26-.14v-11.06l4.69-2.96Z"/>
</svg>