<?xml version="1.0" encoding="UTF-8"?>
<svg id="Calque_2" data-name="Calque 2" xmlns="http://www.w3.org/2000/svg" viewBox="0 0 214.17 171.97">
  <defs>
    <style>
      .cls-1 {
        fill: #f2f2f2;
      }

      .cls-2 {
        fill: #231f20;
      }
    </style>
  </defs>
  <path class="cls-2" d="M207.15,158.46c-.29-7.96-5.79-20.73-11.42-26.6l.07-.1-63.15-39.95-.52-.33-.03.09-4.35-2.75.05-.07-61.27-38.57L16.89,18.85l-4.21-2.66-5.69-3.6.1,82.68h28.91l3.51,11.17,3.42-11.17h6.84l13.21,5.16,3.51,14.43,3.44-11.71,16.83,6.58,3.51,14.43,3.44-11.71,34.43,13.46h0s3.82,1.48,3.82,1.48h0s59.94,23.44,59.94,23.44h0s2.63,1.02,2.63,1.02l12.65,7.53-.03-.92ZM194.39,132.05l-2.3,3.34-40.4-25.43,2.59-3.23,40.11,25.32ZM132.61,93.06l20.82,13.14-2.59,3.22-19.71-12.4,1.48-3.96ZM126.35,89.11l-2.84,4.16-22.02-13.42,3.47-4.24,21.39,13.5ZM104.1,75.07l-3.47,4.25-22.49-13.71,3.44-4.76,22.52,14.22ZM69.42,53.18l11.31,7.14-3.45,4.77-23.72-14.47,1.63-6.4,14.23,8.96ZM13.68,18l.92.58,35.69,22.55-3.4,5.66L13.68,27.85v-9.85ZM39.5,103.06l-2.45-7.79h4.84l-2.39,7.79ZM49.37,94.27H8.09v-4.62s41.28,0,41.28,0v4.62ZM66.58,111.01l-2.47-10.12,4.87,1.94-2.4,8.18ZM90.36,120.3l-2.46-10.12,4.86,1.95-2.4,8.17ZM127.14,124.44l-39.79-15.55-.88-.36h0s-22.83-8.91-22.83-8.91l-.96-.38-12.31-4.81v-4.56l76.77,28.46v6.11ZM190.9,149.37l-57.94-22.66v-6.51l57.94,24.79v4.38ZM194.97,150.96l-3.07-1.2v-5.43l-59.94-25.64v7.63l-3.82-1.49v-7.19l-78.1-28.96-41.96-.03-.09-74.24,4.69,2.96v11.06l34.57,19.71,3.9-6.49,3.16,1.99-1.91,7.45,71,43.28.4.25,3.39-4.98,4.56,2.87-1.84,4.92,62.46,39.32,2.78-4.05c5.23,5.56,10.31,17.14,10.94,24.87l-11.12-6.61Z"/>
  <polygon class="cls-1" points="49.37 89.65 49.37 94.27 8.09 94.27 8.08 89.65 49.37 89.65"/>
  <polygon class="cls-1" points="92.76 112.13 90.36 120.3 87.9 110.18 92.76 112.13"/>
  <polygon class="cls-1" points="68.98 102.83 66.58 111.01 64.11 100.89 68.98 102.83"/>
  <polygon class="cls-1" points="41.89 95.27 39.5 103.06 37.05 95.27 41.89 95.27"/>
  <polygon class="cls-1" points="127.14 118.33 127.14 124.44 87.35 108.89 86.47 108.53 86.47 108.54 63.64 99.62 62.68 99.24 50.37 94.43 50.37 89.87 127.14 118.33"/>
  <polygon class="cls-1" points="190.9 144.99 190.9 149.37 132.96 126.71 132.96 120.2 190.9 144.99"/>
  <polygon class="cls-1" points="194.39 132.05 192.09 135.39 151.69 109.96 154.28 106.73 194.39 132.05"/>
  <polygon class="cls-1" points="153.43 106.2 150.84 109.42 131.13 97.02 132.61 93.06 153.43 106.2"/>
  <polygon class="cls-1" points="126.35 89.11 123.51 93.27 101.49 79.85 104.96 75.61 126.35 89.11"/>
  <polygon class="cls-1" points="104.1 75.07 100.63 79.32 78.14 65.61 81.58 60.85 104.1 75.07"/>
  <polygon class="cls-1" points="80.73 60.32 77.28 65.09 53.56 50.62 55.19 44.22 69.42 53.18 80.73 60.32"/>
  <polygon class="cls-1" points="50.29 41.13 46.89 46.79 13.68 27.85 13.68 18 14.6 18.58 50.29 41.13"/>
  <path class="cls-1" d="M206.09,157.57l-11.12-6.61-3.07-1.2v-5.43l-59.94-25.64v7.63l-3.82-1.49v-7.19l-78.1-28.96-41.96-.03-.09-74.24,4.69,2.96v11.06l34.57,19.71,3.9-6.49,3.16,1.99-1.91,7.45,71,43.28.4.25,3.39-4.98,4.56,2.87-1.84,4.92,62.46,39.32,2.78-4.05c5.23,5.56,10.31,17.14,10.94,24.87Z"/>
</svg>