<?xml version="1.0" encoding="UTF-8"?>
<svg id="Calque_2" data-name="Calque 2" xmlns="http://www.w3.org/2000/svg" viewBox="0 0 469.61 452.97">
  <defs>
    <style>
      .cls-1 {
        fill: #f2f2f2;
      }

      .cls-2 {
        fill: #231f20;
      }
    </style>
  </defs>
  <g>
    <path class="cls-2" d="M256.07,238.42v-5.62s-.01-1-.01-1l-.1-75.43h0s-.11-81.5-.11-81.5v-1h-42.1v1l-.11,81.49h0s-.09,68.97-.09,68.97v6.47s0,1,0,1v4.62s-.01,1-.01,1l-.09,64.14v1h42.72v-1l-.09-64.14ZM214.44,302.56l.09-64.14v-6.62s.03-18.9.03-18.9l.19-138.03h40.1l.19,138.03.02,18.9v6.62s.1,64.14.1,64.14h-40.72Z"/>
    <polygon class="cls-1" points="255.16 302.56 214.44 302.56 214.53 238.42 214.54 231.8 214.56 212.9 214.75 74.87 254.85 74.87 255.04 212.9 255.06 231.8 255.07 238.42 255.16 302.56"/>
  </g>
  <g>
    <rect class="cls-2" x="297.35" y="232.3" width="1" height="5.62"/>
    <g>
      <path class="cls-2" d="M379.75,235.58l.33-.87-4.35-2.75-.51.76-.04.06,4.55,2.88.86.54.03-.07-.87-.55ZM299.63,183.95l-.5.84,3.16,1.99.25-.99-2.91-1.84ZM379.75,235.58l-.02.07-4.55-2.87,4.55,2.88.86.54.03-.07-.87-.55ZM379.75,235.58l-.02.07-4.55-2.87,4.55,2.88.86.54.03-.07-.87-.55ZM379.75,235.58l-.02.07-4.55-2.87,4.55,2.88.86.54.03-.07-.87-.55ZM379.75,235.58l-.02.07-4.55-2.87,4.55,2.88.86.54.03-.07-.87-.55ZM379.75,235.58l-.02.07-4.55-2.87,4.55,2.88.86.54.03-.07-.87-.55ZM379.75,235.58l-.02.07-4.55-2.87,4.55,2.88.86.54.03-.07-.87-.55ZM455.13,301.61c-.29-7.96-5.79-20.74-11.41-26.62-.09-.1-.19-.2-.29-.3l-57.16-36.08-5.4-3.41-.79-.49-4.35-2.75-2.72-1.72-5.4-3.41-50.44-31.83-.53-.34-6.86-4.33-1-.63-4.4-2.77h0s-1-.64-1-.64l-5.87-3.7-1-.63-4.39-2.78-1-.62-28.21-17.81-2.25-1.42-4.7-2.96h0s-.99-.63-.99-.63l.07,57.16.02,18.9v6.62h42.69l13.2,5.16,1.14.45,5.82,2.27,16.83,6.58,1.14.45,5.81,2.26,34.43,13.46,3.82,1.49,20.97,8.2,38.97,15.23,2.63,1.03,12.65,7.53-.03-.92ZM442.95,294.1l-3.07-1.2-1-.39-57.94-22.65-1-.39-3.82-1.49-1-.39h0s-39.59-15.48-39.59-15.48l-.29-.11-.79-.31h0s-22.66-8.86-22.66-8.86l-.54-.21-.59-.23-12.31-4.81-.32-.13-.09-.03h-41.87v-4.62s-.01-1-.01-1l-.09-74.25,4.69,2.96,30.46,19.22,5.39,3.4h0s2.62,1.66,2.62,1.66l3.16,1.99,2.09,1.32,5.4,3.41,8.92,5.63,2.95,1.87,7.06,4.45.85.53,22.53,14.22.85.54,21.39,13.5.84.53h.01l4.55,2.88.86.54,5.68,3.58,15.14,9.56.85.54,40.11,25.31.39.25c.13.13.26.26.38.4,5.23,5.57,10.3,17.15,10.93,24.88l-11.12-6.62ZM379.75,235.58l-.02.07-4.55-2.87,4.55,2.88.86.54.03-.07-.87-.55ZM379.75,235.58l-.02.07-4.55-2.87,4.55,2.88.86.54.03-.07-.87-.55ZM379.75,235.58l-.02.07-4.55-2.87,4.55,2.88.86.54.03-.07-.87-.55ZM379.75,235.58l-.02.07-4.55-2.87,4.55,2.88.86.54.03-.07-.87-.55ZM379.75,235.58l-.02.07-4.55-2.87,4.55,2.88.86.54.03-.07-.87-.55ZM299.63,183.95l-.5.84,3.16,1.99.25-.99-2.91-1.84ZM379.75,235.58l.33-.87-4.35-2.75-.51.76-.04.06,4.55,2.88.86.54.03-.07-.87-.55Z"/>
      <path class="cls-1" d="M454.07,300.72l-11.12-6.62-3.07-1.2v-5.43l-59.94-25.64v7.64l-3.82-1.49v-7.2l-78.1-28.95-41.96-.03-.09-74.25,4.69,2.96v11.07l34.57,19.7,3.88-6.47,3.17,2-1.9,7.42,71,43.29.4.24,3.39-4.98h.01l4.55,2.88-1.84,4.91,62.46,39.33,2.79-4.06c5.23,5.57,10.3,17.15,10.93,24.88Z"/>
    </g>
    <g>
      <path class="cls-2" d="M298.02,231.83l-41.96-.03h-1v6.62h42.69l13.2,5.16,1.14.45,5.82,2.27,16.83,6.58,1.14.45,5.81,2.26,34.43,13.46v-8.27l-78.1-28.95ZM335.53,252.11l-.29-.11-.79-.31-22.66-8.86-.54-.21-.59-.23-12.31-4.81-.32-.13-.09-.03h-41.87v-4.62s41.69,0,41.69,0l.59.22,76.77,28.46v6.11l-39.59-15.48Z"/>
      <polygon class="cls-1" points="297.35 232.8 297.35 237.42 256.07 237.42 256.06 232.8 297.35 232.8"/>
      <polygon class="cls-1" points="375.12 261.48 375.12 267.58 335.53 252.11 335.24 252 334.45 251.68 311.79 242.83 311.25 242.62 310.66 242.38 310.66 242.39 298.35 237.58 298.35 233.02 375.12 261.48"/>
    </g>
    <g>
      <path class="cls-2" d="M379.94,261.83v8.71l20.97,8.2,38.97,15.24v-6.51l-59.94-25.64ZM380.94,269.86v-6.51l57.94,24.78v4.38l-57.94-22.65Z"/>
      <polygon class="cls-1" points="438.88 288.13 438.88 292.51 380.94 269.86 380.94 263.35 438.88 288.13"/>
    </g>
    <g>
      <path class="cls-2" d="M297.51,182.61l-1-.63-5.39-3.41-28.21-17.82-2.25-1.42v12.25l34.57,19.7,3.88-6.47.02-.02.5-.84-2.12-1.34ZM294.87,189.93l-33.21-18.93v-9.85l34.85,22.01,1.76,1.11h0s-3.4,5.66-3.4,5.66Z"/>
      <polygon class="cls-1" points="298.27 184.28 294.87 189.93 261.66 171 261.66 161.15 296.51 183.16 296.51 183.17 298.27 184.28"/>
    </g>
    <g>
      <path class="cls-2" d="M374.01,230.77l-1-.62-4.4-2.77-1-.63-50.44-31.75-.53-.34-6.86-4.31-5.4-3.4-1-.63-.84-.53-.25.99v.03s-1.91,7.42-1.91,7.42l71,43.29.4.24,3.39-4.98h.01l.04-.06.51-.76h0s.04-.07.04-.07l-1.77-1.12ZM371.49,236.42l-22.02-13.42-.86-.53-22.49-13.72-.86-.52-23.72-14.46,1.63-6.4,1.21.76,14.32,9.01,2.95,1.87,7.07,4.44.84.53h0s22.55,14.2,22.55,14.2l.86.54,14.64,9.21,6.76,4.26-.04.05h0s-2.84,4.18-2.84,4.18Z"/>
      <polygon class="cls-1" points="374.33 232.25 371.49 236.42 349.47 223 352.94 218.75 374.33 232.25"/>
      <polygon class="cls-1" points="352.09 218.21 348.61 222.47 326.12 208.75 329.56 203.99 352.09 218.21"/>
      <polygon class="cls-1" points="328.71 203.46 325.26 208.23 301.54 193.77 303.17 187.37 304.38 188.13 318.7 197.14 321.65 199.01 328.71 203.46"/>
    </g>
    <polygon class="cls-2" points="329.84 203.6 329.56 203.98 329.56 203.99 326.12 208.75 325.8 209.19 324.99 208.61 325.26 208.23 328.71 203.46 328.72 203.45 329.03 203.02 329.84 203.6"/>
    <polygon class="cls-2" points="353.25 218.37 352.97 218.72 352.94 218.75 349.47 223 349.11 223.44 348.34 222.8 348.61 222.47 352.09 218.21 352.11 218.18 352.47 217.74 353.25 218.37"/>
    <g>
      <path class="cls-2" d="M386.27,238.53l-1-.64-4.4-2.78-.24-.15-.52-.33-.02.07h-.01s-.33.88-.33.88l-.02.07h0s-1.84,4.92-1.84,4.92l62.46,39.33,2.79-4.06.58-.85.06-.09-57.51-36.37ZM440.07,278.54l-40.4-25.44-.85-.53-19.71-12.41,1.48-3.96.03-.07.25.16,5.4,3.41,15.17,9.6.85.54,40.08,25.35-2.3,3.35Z"/>
      <polygon class="cls-1" points="442.37 275.19 440.07 278.54 399.67 253.1 402.26 249.88 442.37 275.19"/>
      <polygon class="cls-1" points="401.41 249.34 398.82 252.57 379.11 240.16 380.59 236.2 386.27 239.78 401.41 249.34"/>
    </g>
    <polygon class="cls-2" points="402.57 249.49 402.29 249.84 402.26 249.88 399.67 253.1 399.32 253.54 398.54 252.92 398.82 252.57 401.41 249.34 401.44 249.3 401.79 248.86 402.57 249.49"/>
    <g>
      <path class="cls-2" d="M283.67,237.42l.31,1,3.51,11.16,3.42-11.16.31-1h-7.55ZM287.48,246.21l-2.45-7.79h4.84l-2.39,7.79Z"/>
      <polygon class="cls-1" points="289.87 238.42 287.48 246.21 285.03 238.42 289.87 238.42"/>
    </g>
    <g>
      <path class="cls-2" d="M311.79,242.83l-.54-.21-.59-.24h0s.29,1.2.29,1.2l3.52,14.43,3.44-11.71.27-.92-6.39-2.55ZM316.96,245.97l-2.4,8.18-2.47-10.12,4.87,1.94Z"/>
      <polygon class="cls-1" points="316.96 245.97 314.56 254.15 312.09 244.03 316.96 245.97"/>
    </g>
    <g>
      <path class="cls-2" d="M335.53,252.11l-.29-.11-.79-.32h0s.29,1.2.29,1.2l3.51,14.42,3.44-11.71.27-.91-6.43-2.57ZM340.74,255.27l-2.4,8.18-2.46-10.12,4.86,1.94Z"/>
      <polygon class="cls-1" points="340.74 255.27 338.34 263.45 335.88 253.33 340.74 255.27"/>
    </g>
  </g>
  <g>
    <g>
      <path class="cls-2" d="M213.44,302.56v1c.07,18.64,4.04,48.6,8.97,76.47.05.34.12.68.18,1.02,1.18,6.69,2.42,13.24,3.67,19.48.07.33.14.67.21,1,.66,3.31,1.33,6.52,2,9.61h.01c.06.33.13.66.21.99,1.96,9.06,3.9,17.04,5.63,23.21l.48,1.71.48-1.71c1.73-6.17,3.66-14.15,5.63-23.21.07-.33.14-.66.21-.99.67-3.09,1.34-6.3,2.01-9.61.06-.33.13-.67.2-1,1.25-6.24,2.49-12.79,3.68-19.48.06-.34.12-.68.18-1.02,4.92-27.87,8.9-57.83,8.97-76.47v-1h-42.72ZM246.26,379.59c-1.24,7.06-2.55,13.99-3.87,20.56-.75,3.76-1.51,7.41-2.27,10.9l-.04.19-.03.12c-1.82,8.44-3.61,15.95-5.25,21.97-1.64-6.02-3.43-13.53-5.25-21.97l-.07-.31c-.76-3.49-1.52-7.14-2.27-10.9-1.32-6.57-2.63-13.5-3.87-20.56-4.89-27.73-8.83-57.5-8.9-76.03h40.72c-.07,18.53-4.01,48.3-8.9,76.03Z"/>
      <path class="cls-1" d="M214.44,303.56c.07,18.53,4.01,48.3,8.9,76.03h.01l4,20.5,2.2,11.27c1.82,8.44,3.61,15.95,5.25,21.97,1.64-6.02,3.43-13.53,5.25-21.97l.03-.12.04-.19,2.13-10.96,4-20.5h.01c4.89-27.73,8.83-57.5,8.9-76.03h-40.72ZM235.27,424.5l-.48,1.41-.47-1.41c-.04-.12-4.06-12.25-4.06-26.92s4-61.24,4.04-61.71h.99c.04.47,4.04,47.1,4.04,61.71s-4.02,26.8-4.06,26.92Z"/>
    </g>
    <g>
      <path class="cls-2" d="M235.29,335.87h-.99c-.04.47-4.04,47.1-4.04,61.71s4.02,26.8,4.06,26.92l.47,1.41.48-1.41c.04-.12,4.06-12.25,4.06-26.92s-4-61.24-4.04-61.71ZM234.79,422.61c-1.05-3.71-3.53-13.58-3.53-25.03s2.46-42.54,3.53-55.66c1.09,13.12,3.54,44.24,3.54,55.66s-2.47,21.32-3.54,25.03Z"/>
      <path class="cls-1" d="M238.33,397.58c0,11.45-2.47,21.32-3.54,25.03-1.05-3.71-3.53-13.58-3.53-25.03s2.46-42.54,3.53-55.66c1.09,13.12,3.54,44.24,3.54,55.66Z"/>
    </g>
  </g>
  <g>
    <g>
      <path class="cls-2" d="M296.51,181.96l1,.63h0s-1-.63-1-.63ZM292.12,179.18l4.39,2.78h0s-4.39-2.78-4.39-2.78ZM302.53,152.75h-4.16c-4,0-7.25,3.25-7.25,7.25v19.73l5.39,3.4h0s2.62,1.66,2.62,1.66l3.16,1.99,2.09,1.32,5.4,3.41v-31.51c0-4-3.26-7.25-7.25-7.25ZM304.38,186.92l-1-.63-5.87-3.7h0s-1-.63-1-.63h0s-4.39-2.78-4.39-2.78v-19.18c0-3.45,2.8-6.25,6.25-6.25h4.16c3.44,0,6.25,2.8,6.25,6.25v29.7l-4.4-2.78ZM292.12,179.18l4.39,2.78h0s-4.39-2.78-4.39-2.78ZM296.51,181.96l1,.63h0s-1-.63-1-.63Z"/>
      <path class="cls-1" d="M308.78,160v29.7l-4.4-2.78v-11.59c0-1.72-1.4-3.12-3.13-3.12h-1.61c-1.72,0-3.13,1.4-3.13,3.12v6.62l-4.39-2.77v-19.18c0-3.45,2.8-6.25,6.25-6.25h4.16c3.44,0,6.25,2.8,6.25,6.25Z"/>
    </g>
    <g>
      <path class="cls-2" d="M301.25,172.21h-1.61c-1.72,0-3.13,1.4-3.13,3.12v7.84l1.76,1.11.84.53,3.17,2,.89.56,1.21.76v-12.8c0-1.72-1.4-3.12-3.13-3.12ZM303.38,186.32l-.84-.53-2.91-1.84-2.12-1.33v-7.29c0-1.17.96-2.12,2.13-2.12h1.61c1.17,0,2.13.95,2.13,2.12v10.99Z"/>
      <path class="cls-1" d="M303.38,175.33v10.96l-5.87-3.7v-7.26c0-1.17.96-2.12,2.13-2.12h1.61c1.17,0,2.13.95,2.13,2.12Z"/>
    </g>
    <g>
      <path class="cls-2" d="M379.02,201.02h-4.16c-4,0-7.25,3.25-7.25,7.25v19.73l6.72,4.24h0s.84.54.84.54h.01l4.55,2.87.86.55,5.68,3.58v-31.51c0-4-3.26-7.25-7.25-7.25ZM385.27,237.97l-4.4-2.78-.78-.49-4.35-2.75-2.73-1.72-4.4-2.78v-19.18c0-3.45,2.8-6.25,6.25-6.25h4.16c3.44,0,6.25,2.8,6.25,6.25v29.7Z"/>
      <path class="cls-1" d="M385.27,208.27v29.62l-4.4-2.78v-11.62c0-1.73-1.4-3.13-3.13-3.13h-1.61c-1.72,0-3.12,1.4-3.12,3.13v6.66l-4.4-2.77v-19.11c0-3.45,2.8-6.25,6.25-6.25h4.16c3.44,0,6.25,2.8,6.25,6.25Z"/>
    </g>
    <g>
      <path class="cls-2" d="M377.74,220.36h-1.61c-1.72,0-3.12,1.4-3.12,3.13v7.83l2.21,1.4,4.53,2.86.87.55.25.16v-12.8c0-1.73-1.4-3.13-3.13-3.13ZM374.01,223.49c0-1.17.95-2.13,2.12-2.13h1.61c1.17,0,2.13.96,2.13,2.13v10.98l-4.09-2.58-1.77-1.12v-7.28Z"/>
      <path class="cls-1" d="M379.87,223.49v10.98l-4.09-2.58-1.77-1.12v-7.28c0-1.17.95-2.13,2.12-2.13h1.61c1.17,0,2.13.96,2.13,2.13Z"/>
    </g>
    <g>
      <path class="cls-2" d="M171.23,152.75h-4.16c-3.99,0-7.25,3.25-7.25,7.25v31.51l5.4-3.41,2.09-1.32,3.16-1.99,2.61-1.65,5.4-3.41v-19.73c0-4-3.25-7.25-7.25-7.25ZM173.08,181.96l-1,.63-5.86,3.7-1,.63-4.4,2.78v-29.7c0-3.45,2.81-6.25,6.25-6.25h4.16c3.45,0,6.25,2.8,6.25,6.25v19.18l-4.4,2.78Z"/>
      <path class="cls-1" d="M177.48,160v19.18l-4.4,2.78v-6.63c0-1.72-1.4-3.12-3.12-3.12h-1.62c-1.72,0-3.12,1.4-3.12,3.12v11.59l-4.4,2.78v-29.7c0-3.45,2.81-6.25,6.25-6.25h4.16c3.45,0,6.25,2.8,6.25,6.25Z"/>
    </g>
    <g>
      <path class="cls-2" d="M169.96,172.21h-1.62c-1.72,0-3.12,1.4-3.12,3.12v12.8l1.21-.76.89-.56,3.16-2,.85-.54,1.75-1.11v-7.83c0-1.72-1.4-3.12-3.12-3.12ZM172.08,182.62l-2.11,1.33-2.91,1.84-.84.53v-10.99c0-1.17.95-2.12,2.12-2.12h1.62c1.17,0,2.12.95,2.12,2.12v7.29Z"/>
      <path class="cls-1" d="M172.08,175.33v7.26l-5.86,3.7v-10.96c0-1.17.95-2.12,2.12-2.12h1.62c1.17,0,2.12.95,2.12,2.12Z"/>
    </g>
    <g>
      <path class="cls-2" d="M84.33,237.97l4.4-2.77h0s-4.4,2.77-4.4,2.77ZM84.33,237.97l4.4-2.77h0s-4.4,2.77-4.4,2.77ZM94.74,201.02h-4.16c-3.99,0-7.25,3.25-7.25,7.25v31.51l5.68-3.58.85-.55,4.56-2.87h.01l.84-.53h0s6.72-4.25,6.72-4.25v-19.73c0-4-3.25-7.25-7.25-7.25ZM100.99,227.45l-4.4,2.78-2.73,1.72h0s-4.35,2.75-4.35,2.75l-.78.49-4.4,2.78v-29.7c0-3.45,2.81-6.25,6.25-6.25h4.16c3.45,0,6.25,2.8,6.25,6.25v19.18ZM84.33,237.97l4.4-2.77h0s-4.4,2.77-4.4,2.77ZM84.33,237.97l4.4-2.77h0s-4.4,2.77-4.4,2.77Z"/>
      <path class="cls-1" d="M100.99,208.27v19.11l-4.4,2.77v-6.66c0-1.73-1.4-3.13-3.12-3.13h-1.62c-1.72,0-3.12,1.4-3.12,3.13v11.61l-4.4,2.79v-29.62c0-3.45,2.81-6.25,6.25-6.25h4.16c3.45,0,6.25,2.8,6.25,6.25Z"/>
    </g>
    <g>
      <path class="cls-2" d="M93.47,220.36h-1.62c-1.72,0-3.12,1.4-3.12,3.13v12.8l.25-.16.86-.54,4.54-2.87,2.21-1.4v-7.83c0-1.73-1.4-3.13-3.12-3.13ZM89.73,223.49c0-1.17.95-2.13,2.12-2.13h1.62c1.17,0,2.12.96,2.12,2.13v7.28l-1.77,1.12-4.09,2.58v-10.98Z"/>
      <path class="cls-1" d="M95.59,223.49v7.28l-1.77,1.12-4.09,2.58v-10.98c0-1.17.95-2.13,2.12-2.13h1.62c1.17,0,2.12.96,2.12,2.13Z"/>
    </g>
  </g>
  <g>
    <g>
      <path class="cls-2" d="M247.19,380.03c-.12-.06-.24-.11-.36-.17l-.57-.27h-.01l-4,20.5-2.13,10.96-.04.19-.03.12-.09.48.95.29,55.23,17.02.65.2,6.42,1.98.65.2v-.68c0-16.21-19.07-33.3-56.67-50.82ZM296.79,428.3l-1-.3h0s-54.67-16.86-54.67-16.86h-.01l2.08-10.67,3.79-19.43s.02,0,.03,0c36.52,17.05,55.3,33.57,55.84,49.12l-6.06-1.87Z"/>
      <path class="cls-1" d="M296.79,428.3v-6l-53.46-21.77c1.25-6.24,2.49-12.79,3.68-19.48,36.52,17.05,55.3,33.57,55.84,49.12l-6.06-1.87Z"/>
    </g>
    <g>
      <path class="cls-2" d="M243.33,400.53l-.14-.06-.8-.32-.14-.06-2.13,10.96-.04.19-.03.12-.09.48.95.29,55.23,17.02.65.2v-7.05l-53.46-21.77ZM241.12,411.14h-.01l1.89-9.66.13.05,52.66,21.44v5.03l-54.67-16.86Z"/>
      <path class="cls-1" d="M295.79,422.97v5.02l-54.67-16.85c.67-3.09,1.34-6.3,2.01-9.61l52.66,21.44Z"/>
    </g>
    <g>
      <path class="cls-2" d="M229.55,411.36l-.07-.31-2.13-10.96-4-20.5h-.01l-.57.27c-.12.06-.24.11-.36.17-37.6,17.52-56.67,34.61-56.67,50.82v.68l7.07-2.18,55.88-17.22.52-.16.43-.13-.09-.48ZM228.47,411.14l-54.66,16.85h0s-1,.31-1,.31l-6.06,1.87c.54-15.55,19.31-32.07,55.84-49.12.01,0,.02,0,.03,0l3.78,19.44.2,1,1.88,9.66h-.01Z"/>
      <path class="cls-1" d="M226.26,400.53l-53.45,21.77v6l-6.06,1.87c.54-15.55,19.31-32.07,55.84-49.12,1.18,6.69,2.42,13.24,3.67,19.48Z"/>
    </g>
    <g>
      <path class="cls-2" d="M229.55,411.36l-2.2-11.27-.14.06-.81.33-.14.05-53.45,21.77v7.05l55.88-17.22.52-.16.43-.13-.09-.48ZM228.47,411.14l-54.66,16.86v-5.03l52.66-21.44.13-.05,1.88,9.66h-.01Z"/>
      <path class="cls-1" d="M228.47,411.14l-54.66,16.85v-5.02l52.66-21.44c.66,3.31,1.33,6.52,2,9.61Z"/>
    </g>
  </g>
  <g>
    <g>
      <path class="cls-2" d="M169.97,183.95l-2.91,1.84.25.99,3.16-1.99-.5-.84ZM94.38,232.72l-.52-.76-4.35,2.74.33.89-.86.54.03.07.86-.54,4.55-2.88-.04-.06ZM169.97,183.95l-2.91,1.84.25.99,3.16-1.99-.5-.84ZM94.38,232.72l-.52-.76-4.35,2.74.33.89-.86.54.03.07.86-.54,4.55-2.88-.04-.06ZM169.97,183.95l-2.91,1.84.25.99,3.16-1.99-.5-.84ZM94.38,232.72l-.52-.76-4.35,2.74.33.89-.86.54.03.07.86-.54,4.55-2.88-.04-.06ZM169.97,183.95l-2.91,1.84.25.99,3.16-1.99-.5-.84ZM94.38,232.72l-.52-.76-4.35,2.74.33.89-.86.54.03.07.86-.54,4.55-2.88-.04-.06ZM169.97,183.95l-2.91,1.84.25.99,3.16-1.99-.5-.84ZM94.38,232.72l-.52-.76-4.35,2.74.33.89-.86.54.03.07.86-.54,4.55-2.88-.04-.06ZM169.97,183.95l-2.91,1.84.25.99,3.16-1.99-.5-.84ZM94.38,232.72l-.52-.76-4.35,2.74.33.89-.86.54.03.07.86-.54,4.55-2.88-.04-.06ZM169.97,183.95l-2.91,1.84.25.99,3.16-1.99-.5-.84ZM93.86,231.96l-4.35,2.74.33.89-.86.54.03.07.86-.54,4.55-2.88-.04-.06-.52-.76ZM213.64,156.36h0s-4.7,2.97-4.7,2.97l-4.58,2.89-25.88,16.33-1,.63-4.4,2.78-1,.63-5.86,3.7-1,.63-4.4,2.78-1,.63-11.06,6.98-4.04,2.55-42.73,26.97-1,.62-4.4,2.78-2.73,1.72h0s-4.35,2.75-4.35,2.75l-.78.49h0s-4.4,2.78-4.4,2.78l-1,.63-53.8,33.96-3.28,2.07-.08.06c-.1.1-.2.2-.29.3-5.63,5.88-11.12,18.66-11.41,26.62l-.03.92,12.58-7.5,2.7-1.05h0s28.84-11.28,28.84-11.28l31.1-12.16,3.82-1.49,34.43-13.45h0s5.81-2.27,5.81-2.27l1.14-.45,16.83-6.58,5.81-2.27,1.14-.45,13.21-5.16h42.68v-6.62s.03-18.9.03-18.9l.07-57.16-.99.62ZM213.54,232.8v4.62h-41.88l-.41.16-12.32,4.82h-.01l-1.88.74-.09.03-21.8,8.52h-.01s-1.38.55-1.38.55l-1.4.55-37.88,14.8-1,.39-3.82,1.5-59.94,23.43-3.14,1.23-11.05,6.57c.63-7.72,5.7-19.3,10.93-24.87.12-.14.25-.27.38-.4l.39-.25,56.1-35.41,5.68-3.58.86-.54,4.55-2.88h.01l.84-.53,21.39-13.5.85-.54,22.53-14.22.85-.53,7.06-4.45,2.95-1.87,8.92-5.63,5.4-3.41,2.09-1.32,3.16-1.99,2.61-1.65,5.4-3.41,30.46-19.22,4.69-2.96-.08,67.78v6.47s0,1,0,1ZM94.38,232.72l-.52-.76-4.35,2.74.33.89-.86.54.03.07.86-.54,4.55-2.88-.04-.06ZM169.97,183.95l-2.91,1.84.25.99,3.16-1.99-.5-.84ZM94.38,232.72l-.52-.76-4.35,2.74.33.89-.86.54.03.07.86-.54,4.55-2.88-.04-.06ZM169.97,183.95l-2.91,1.84.25.99,3.16-1.99-.5-.84ZM94.38,232.72l-.52-.76-4.35,2.74.33.89-.86.54.03.07.86-.54,4.55-2.88-.04-.06ZM169.97,183.95l-2.91,1.84.25.99,3.16-1.99-.5-.84ZM94.38,232.72l-.52-.76-4.35,2.74.33.89-.86.54.03.07.86-.54,4.55-2.88-.04-.06ZM169.97,183.95l-2.91,1.84.25.99,3.16-1.99-.5-.84ZM94.38,232.72l-.52-.76-4.35,2.74.33.89-.86.54.03.07.86-.54,4.55-2.88-.04-.06ZM169.97,183.95l-2.91,1.84.25.99,3.16-1.99-.5-.84ZM94.38,232.72l-.52-.76-4.35,2.74.33.89-.86.54.03.07.86-.54,4.55-2.88-.04-.06ZM169.97,183.95l-2.91,1.84.25.99,3.16-1.99-.5-.84Z"/>
      <path class="cls-1" d="M213.63,157.55l-.08,67.78v6.47h-41.8l-78.27,28.98v7.2l-3.82,1.5v-7.65l-59.94,25.64v5.44l-3.14,1.23-11.05,6.57c.63-7.72,5.7-19.3,10.93-24.87l2.79,4.06,62.46-39.33-1.84-4.91,4.55-2.88h.01l3.38,4.98,71.4-43.53-1.89-7.42,3.16-2,3.89,6.47,34.32-19.56.25-.14v-11.07l4.69-2.96Z"/>
    </g>
    <g>
      <path class="cls-2" d="M171.75,231.8l-78.27,28.98v8.27l34.43-13.45h0s5.81-2.27,5.81-2.27l1.14-.45,16.83-6.58,5.81-2.27,1.14-.45,13.21-5.16h42.68v-6.62s-42.78,0-42.78,0ZM213.53,237.42h-41.87l-.41.16-12.32,4.82h-.01l-1.88.74-.09.03-21.8,8.52h-.01s-1.38.55-1.38.55l-1.4.55-37.88,14.8v-6.11l76.77-28.46.59-.22h41.7v4.62Z"/>
      <polygon class="cls-1" points="213.54 232.8 213.53 237.42 172.25 237.42 172.25 232.8 213.54 232.8"/>
      <polygon class="cls-1" points="171.25 233.02 171.25 237.58 158.93 242.4 158.93 242.38 157.04 243.14 156.95 243.17 135.15 251.69 135.15 251.68 133.76 252.24 132.36 252.79 94.48 267.59 94.48 261.48 171.25 233.02"/>
    </g>
    <rect class="cls-2" x="171.25" y="232.3" width="1" height="5.62"/>
    <g>
      <path class="cls-2" d="M29.72,287.47v6.51l28.84-11.28,31.1-12.16v-8.71l-59.94,25.64ZM30.72,288.13l57.94-24.78v6.51l-57.94,22.65v-4.38Z"/>
      <polygon class="cls-1" points="88.66 263.35 88.66 269.86 30.72 292.51 30.72 288.13 88.66 263.35"/>
    </g>
    <g>
      <path class="cls-2" d="M204.36,162.22l-25.88,16.35-5.4,3.42-1,.63-2.11,1.33.5.84v.02s3.9,6.47,3.9,6.47l34.32-19.56.25-.14v-12.25l-4.58,2.89ZM207.94,171l-33.22,18.93-3.39-5.66,1.75-1.11,34.86-22.01v9.85Z"/>
      <polygon class="cls-1" points="207.94 161.15 207.94 171 174.72 189.93 171.33 184.27 173.08 183.16 207.94 161.15"/>
    </g>
    <g>
      <path class="cls-2" d="M167.32,186.81v-.03s-.26-.99-.26-.99l-.84.53-1,.63-5.4,3.4-11.06,6.96-4.04,2.55-42.73,26.89-1,.63-4.4,2.77-2.33,1.47-.44.27.04.06h0s.52.77.52.77l.04.06h.01l3.38,4.98,71.4-43.53-1.89-7.42ZM120.99,222.47l-.86.53-22.02,13.42-2.84-4.17h0s-.04-.06-.04-.06l6.76-4.26,14.64-9.21.86-.54,22.55-14.19h0s.84-.54.84-.54l7.07-4.44,2.95-1.87,14.32-9.01,1.21-.76,1.63,6.4-23.73,14.47-.85.52-22.49,13.71Z"/>
      <polygon class="cls-1" points="168.06 193.77 144.33 208.24 140.89 203.46 147.95 199.01 150.9 197.14 165.22 188.13 166.43 187.37 168.06 193.77"/>
      <polygon class="cls-1" points="143.48 208.76 120.99 222.47 117.51 218.21 140.04 203.99 143.48 208.76"/>
      <polygon class="cls-1" points="120.13 223 98.11 236.42 95.27 232.25 116.66 218.75 120.13 223"/>
    </g>
    <polygon class="cls-2" points="144.6 208.61 143.79 209.19 143.48 208.76 140.04 203.99 140.04 203.98 139.76 203.6 140.57 203.02 140.88 203.45 140.89 203.46 144.33 208.24 144.6 208.61"/>
    <polygon class="cls-2" points="121.26 222.8 120.49 223.44 120.13 223 116.66 218.75 116.63 218.72 116.35 218.37 117.13 217.74 117.49 218.18 117.51 218.21 120.99 222.47 121.26 222.8"/>
    <g>
      <path class="cls-2" d="M89.87,235.66h-.01s-.02-.07-.02-.07l-.33-.89-.03-.07-.75.47-4.4,2.79-1,.63-53.8,34.04-3.28,2.07-.43.27.06.09.58.85,2.79,4.06,62.46-39.33-1.84-4.91ZM27.23,275.19l56.1-35.49,5.4-3.41.25-.16.03.07,1.48,3.96-60.96,38.38-2.3-3.35Z"/>
      <polygon class="cls-1" points="90.49 240.16 29.53 278.54 27.23 275.19 83.33 239.78 89.01 236.2 90.49 240.16"/>
    </g>
    <g>
      <path class="cls-2" d="M178.38,237.42l.31,1,3.42,11.16,3.51-11.16.31-1h-7.55ZM182.12,246.21l-2.39-7.79h4.84l-2.45,7.79Z"/>
      <polygon class="cls-1" points="184.57 238.42 182.12 246.21 179.73 238.42 184.57 238.42"/>
    </g>
    <g>
      <path class="cls-2" d="M157.04,243.14l-.09.03-5.53,2.21.27.92,3.44,11.71,3.51-14.43.28-1.18h.01v-.02l-1.89.76ZM155.04,254.15l-2.4-8.18,4.86-1.94-2.46,10.12Z"/>
      <polygon class="cls-1" points="157.5 244.03 155.04 254.15 152.64 245.97 157.5 244.03"/>
    </g>
    <g>
      <path class="cls-2" d="M133.76,252.24l-1.4.55-4.72,1.89.27.91h0s3.44,11.71,3.44,11.71l3.51-14.42.28-1.18h.01v-.02l-1.39.56ZM131.26,263.45l-2.41-8.18,4.87-1.94-2.46,10.12Z"/>
      <polygon class="cls-1" points="133.72 253.33 131.26 263.45 128.85 255.27 133.72 253.33"/>
    </g>
  </g>
  <g>
    <g>
      <path class="cls-2" d="M255.84,73.87c-.21-15.87-10.57-57.95-21.04-57.95s-20.83,42.08-21.04,57.95c-.01.17-.01.34-.01.5v.5h42.1v-.5c0-.16,0-.33-.01-.5ZM214.75,73.87c.22-16.56,11.01-56.95,20.05-56.95s19.83,40.39,20.05,56.95h-40.1Z"/>
      <path class="cls-1" d="M234.8,16.92c-9.04,0-19.83,40.39-20.05,56.95h40.1c-.22-16.56-11.01-56.95-20.05-56.95ZM244.62,41.58c-.13.09-.34.18-.6.18-.29,0-.66-.12-1.08-.48-1.51-1.3-6.68-6.81-8.14-8.37-1.46,1.56-6.63,7.07-8.14,8.37-.42.36-.79.48-1.08.48-.27,0-.47-.09-.61-.18-1.22-.79-1.08-3.84-.31-6.45.59-1.99,2.99-8.37,9.64-8.67v-.02h1v.02c6.65.3,9.05,6.68,9.64,8.67.77,2.61.91,5.66-.32,6.45Z"/>
    </g>
    <g>
      <path class="cls-2" d="M244.94,35.13c-.59-1.99-2.99-8.37-9.64-8.67-.16-.02-.33-.02-.5-.02h-.5v5.93l.13.14s.17.18.37.4c1.46,1.56,6.63,7.07,8.14,8.37.42.36.79.48,1.08.48.26,0,.47-.09.6-.18,1.23-.79,1.09-3.84.32-6.45ZM244.08,40.74c-.1.06-.32-.07-.49-.22-1.55-1.33-7.33-7.52-8.29-8.54v-4.53c5.96.31,8.14,6.14,8.68,7.96.88,2.97.53,5.05.1,5.33Z"/>
      <path class="cls-1" d="M244.08,40.74c-.1.06-.32-.07-.49-.22-1.55-1.33-7.33-7.52-8.29-8.54v-4.53c5.96.31,8.14,6.14,8.68,7.96.88,2.97.53,5.05.1,5.33Z"/>
    </g>
    <g>
      <path class="cls-2" d="M234.8,26.44c-.17,0-.34,0-.5.02-6.65.3-9.05,6.68-9.64,8.67-.77,2.61-.91,5.66.31,6.45.14.09.34.18.61.18.29,0,.66-.12,1.08-.48,1.51-1.3,6.68-6.81,8.14-8.37.2-.22.34-.36.37-.4l.13-.14v-5.93h-.5ZM226.01,40.52c-.17.15-.39.28-.49.22-.43-.28-.78-2.36.1-5.33.54-1.82,2.72-7.65,8.68-7.96v4.53c-.96,1.02-6.74,7.21-8.29,8.54Z"/>
      <path class="cls-1" d="M234.3,27.45v4.53c-.96,1.02-6.74,7.21-8.29,8.54-.17.15-.39.28-.49.22-.43-.28-.78-2.36.1-5.33.54-1.82,2.72-7.65,8.68-7.96Z"/>
    </g>
  </g>
</svg>