<?xml version="1.0" encoding="UTF-8"?>
<svg id="Calque_1" data-name="Calque 1" xmlns="http://www.w3.org/2000/svg" viewBox="0 0 469.77 179.08">
  <path d="M438.79,145.3c-5.18-.1-11.26.5-16.2-1.3-4.67-1.7-8.58-8.65-13.26-8.75-7.53-.15-19.82,3.24-28.05,4.05-25.97,2.53-56,4.63-81.98,2.99-11.98-.76-22.47-1.06-34.1-1.66-9.62-.5-12.1-.14-22.88-.29-10.16-.14-21.44-.15-31.53-1.03-.28,1.89,8.35,2.62,6,4.98l-16.8,3.21-1.2,4.79c1.25,1.11,11.09-3.17,9.98.49l-14.47,25.53c-2.17,1.95-19.67-.19-22.09-1.94-2.7-1.96-7.78-16.25-10.1-16.97-1.22-.38-6.24.72-7.29,1.44-3.42,2.34-.05,5.7-9.5,6.5-5.21.44-15.53-.47-20.91-1.16-3.75-.48-16.45-2.77-18.92-4.81-3.9-3.22-2.95-19.45-1.19-24.05,4.57-11.94,15.78-4.85,24.99-6.81l22.5,3.79c-.71-1.14-.83-3.1-1.54-3.96-1.01-1.23-26.85-9.14-30.22-9.78-25.69-4.83-53.51-4.49-79.45-10.55-7.99-1.87-35.07-10.38-39.01-16.98-6.44-10.77,8.65-14.21,14.58-17.87,3.87-2.39,6.21-6.07,11.29-8.71,12.1-6.29,31.28-5.78,44.9-5.18,47.05,2.06,95.54,12.96,142.74,14.81l101.08-50.91c7.12-5.95,13.39-18.36,20.08-23.92,2.1-1.74,1.54-1.37,4.88-.5l1.71.46c.27.07.39.38.25.62-7.06,11.65-11.38,24.27-21.8,33.45-3.8,3.35-25.63,17.86-26.46,19.54-1.28,2.57,9.04,3,7.99,6.49h-16.5c-1.54,0-15.82,11.76-18.49,13.51-.41,2.01.47,1.22,1.27,1.7,2.22,1.33,5.08,2.67,7.72,2.79-1.06,2.84-5.75,2.12-8.54,2.03-2.49-.09-10.11-3.16-9.45.96,13.81.84,27.64,2.43,41.37,4.13,17.31,2.14,37.34,6.64,54.14,7.86,13.59.99,18.63-1.98,28.5-10.47,19.17-16.5,35.65-38.4,55.41-54.59,3.47-1.49,20.81-.31,23.6,1.58s-16.6,55.38-17.01,62.49c7.92-2.6,16.58-9.53,24.97-4.49l-22.97,21.01c-.45,2.29,1,1.24,2.35,1.61,3.64.99,18.52,3.57,19.49,6.54.57,1.74.14,5.75-1.12,7.08-3.68,3.91-22.93,4.47-28.74,6.25v14Z"/>
</svg>