<svg width="40" height="40" viewBox="0 0 40 40" fill="none" xmlns="http://www.w3.org/2000/svg">
<path d="M35.5556 4.44444H31.1111V0H8.88889V4.44444H4.44444C2 4.44444 0 6.44444 0 8.88889V11.1111C0 16.7778 4.26667 21.4 9.75556 22.0889C11.1556 25.4222 14.1556 27.9333 17.7778 28.6667V35.5556H8.88889V40H31.1111V35.5556H22.2222V28.6667C25.8444 27.9333 28.8444 25.4222 30.2444 22.0889C35.7333 21.4 40 16.7778 40 11.1111V8.88889C40 6.44444 38 4.44444 35.5556 4.44444ZM4.44444 11.1111V8.88889H8.88889V17.3778C6.31111 16.4444 4.44444 14 4.44444 11.1111ZM20 24.4444C16.3333 24.4444 13.3333 21.4444 13.3333 17.7778V4.44444H26.6667V17.7778C26.6667 21.4444 23.6667 24.4444 20 24.4444ZM35.5556 11.1111C35.5556 14 33.6889 16.4444 31.1111 17.3778V8.88889H35.5556V11.1111Z" fill="#13C7C4"/>
</svg>
