<svg width="40" height="40" viewBox="0 0 40 40" fill="none" xmlns="http://www.w3.org/2000/svg">
<path d="M17.0835 4.58325H7.08353V7.91659H17.0835V4.58325Z" fill="#13C7C4"/>
<path d="M10.4169 11.2499H2.08353V14.5833H10.4169V11.2499Z" fill="#13C7C4"/>
<path d="M13.7502 31.2499H5.41686V34.5833H13.7502V31.2499Z" fill="#13C7C4"/>
<path d="M37.4335 30.5999L33.6335 23.7666C33.1835 22.9666 32.4169 22.3833 31.5335 22.1499L27.0502 21.0333C27.0169 20.2499 26.8169 19.4999 26.4335 18.8166L33.0335 7.83325C34.1169 6.03325 33.5335 3.69992 31.7335 2.61659C31.1335 2.24992 30.4502 2.08325 29.7835 2.08325C28.8502 2.08325 27.9169 2.43325 27.1835 3.11659L21.4669 8.46659C20.8002 9.08325 20.4169 9.96659 20.4169 10.8833V16.5499C19.6335 16.8333 18.9335 17.2999 18.3669 17.9166H5.88353C3.78353 17.9166 2.08353 19.6166 2.08353 21.7166C2.08353 23.4166 3.20019 24.8999 4.83353 25.3666L12.3502 27.5166C12.6502 27.5999 12.9669 27.6499 13.2669 27.6499C13.8669 27.6499 14.4669 27.4833 14.9835 27.1666L18.7169 24.9333C19.2002 25.3666 19.7669 25.7166 20.4169 25.9499V34.5833C18.5835 34.5833 17.0835 36.0833 17.0835 37.9166H27.0835C27.0835 36.0833 25.5835 34.5833 23.7502 34.5833V27.4499L31.4335 35.1333C32.1835 35.8833 33.1502 36.2499 34.1169 36.2499C35.0835 36.2499 36.0669 35.8833 36.8002 35.1333C38.0002 33.9333 38.2669 32.0833 37.4335 30.5999ZM13.2835 24.3166L5.75019 22.1666C5.55019 22.1166 5.41686 21.9166 5.41686 21.7166C5.41686 21.4666 5.63353 21.2499 5.88353 21.2499H17.1002C17.1002 21.4999 17.1169 21.7499 17.1502 21.9833L13.2835 24.3166ZM22.0835 22.9166C21.1669 22.9166 20.4169 22.1666 20.4169 21.2499C20.4169 20.3333 21.1669 19.5833 22.0835 19.5833C23.0002 19.5833 23.7502 20.3333 23.7502 21.2499C23.7502 22.1666 23.0002 22.9166 22.0835 22.9166ZM23.7502 16.4833V10.8833L29.4669 5.53325C29.5502 5.44992 29.7835 5.33325 30.0335 5.46659C30.2502 5.59992 30.3335 5.88325 30.2002 6.09992L23.9669 16.4999L23.7502 16.4833ZM34.4502 32.7833C34.3669 32.8666 34.0502 33.0499 33.7835 32.7833L25.7002 24.6999C25.8335 24.5499 25.9669 24.3999 26.1002 24.2333L30.7335 25.3833L34.5335 32.2166C34.6335 32.3999 34.6002 32.6333 34.4502 32.7833Z" fill="#13C7C4"/>
</svg>
