<svg width="40" height="40" viewBox="0 0 40 40" fill="none" xmlns="http://www.w3.org/2000/svg">
<path d="M33.1333 29.95C33.8667 28.7833 34.3 27.4333 34.3 25.9667C34.3 21.8167 30.95 18.4667 26.8 18.4667C22.65 18.4667 19.3 21.8167 19.3 25.9667C19.3 30.1167 22.65 33.4667 26.7833 33.4667C28.25 33.4667 29.6167 33.0333 30.7667 32.3L35.9667 37.5L38.3334 35.1333L33.1333 29.95ZM26.8 30.1333C24.5 30.1333 22.6334 28.2667 22.6334 25.9667C22.6334 23.6667 24.5 21.8 26.8 21.8C29.1 21.8 30.9667 23.6667 30.9667 25.9667C30.9667 28.2667 29.1 30.1333 26.8 30.1333ZM26.2 15.9667C24.9667 16 23.7834 16.2667 22.7 16.7167L21.7834 15.3333L15.45 25.6333L10.4334 19.7667L4.38335 29.45L1.66669 27.5L10 14.1667L15 20L21.6667 9.16667L26.2 15.9667ZM30.5167 16.8C29.45 16.3333 28.3 16.05 27.1 15.9833L35.6334 2.5L38.3334 4.46667L30.5167 16.8Z" fill="#13C7C4"/>
</svg>
