<?xml version="1.0" encoding="UTF-8"?>
<svg id="Calque_2" data-name="Calque 2" xmlns="http://www.w3.org/2000/svg" viewBox="0 0 112.45 105.15">
  <defs>
    <style>
      .cls-1 {
        fill: #f2f2f2;
      }
    </style>
  </defs>
  <g>
    <path d="M18,7.64h-4.16c-4,0-7.25,3.25-7.25,7.25v19.73l5.4,3.41,7.86,4.97,5.4,3.41V14.89c0-4-3.25-7.25-7.25-7.25ZM24.25,44.59l-4.4-2.78-1-.63-5.86-3.7-1-.63-4.4-2.78V14.89c0-3.45,2.81-6.25,6.25-6.25h4.16c3.45,0,6.25,2.8,6.25,6.25v29.7Z"/>
    <path class="cls-1" d="M24.25,14.89v29.7l-4.4-2.78v-11.59c0-1.72-1.4-3.12-3.12-3.12h-1.62c-1.72,0-3.12,1.4-3.12,3.12v6.63l-4.4-2.78V14.89c0-3.45,2.81-6.25,6.25-6.25h4.16c3.45,0,6.25,2.8,6.25,6.25Z"/>
  </g>
  <g>
    <path d="M16.73,27.1h-1.62c-1.72,0-3.12,1.4-3.12,3.12v7.84l7.86,4.96v-12.8c0-1.72-1.4-3.12-3.12-3.12ZM18.85,41.21l-5.86-3.7v-7.29c0-1.17.95-2.12,2.12-2.12h1.62c1.17,0,2.12.95,2.12,2.12v10.99Z"/>
    <path class="cls-1" d="M18.85,30.22v10.96l-5.86-3.7v-7.26c0-1.17.95-2.12,2.12-2.12h1.62c1.17,0,2.12.95,2.12,2.12Z"/>
  </g>
  <g>
    <path d="M94.49,55.91h-4.16c-4,0-7.25,3.25-7.25,7.25v19.73l18.66,11.78v-31.51c0-4-3.25-7.25-7.25-7.25ZM100.74,92.86l-4.4-2.78-7.86-4.96-4.4-2.78v-19.18c0-3.45,2.81-6.25,6.25-6.25h4.16c3.45,0,6.25,2.8,6.25,6.25v29.7Z"/>
    <path class="cls-1" d="M100.74,63.16v29.7l-4.4-2.78v-11.7c0-1.72-1.4-3.13-3.12-3.13h-1.62c-1.72,0-3.12,1.41-3.12,3.13v6.74l-4.4-2.78v-19.18c0-3.45,2.81-6.25,6.25-6.25h4.16c3.45,0,6.25,2.8,6.25,6.25Z"/>
  </g>
  <g>
    <path d="M93.22,75.25h-1.62c-1.72,0-3.12,1.41-3.12,3.13v7.83l7.86,4.97v-12.8c0-1.72-1.4-3.13-3.12-3.13ZM89.48,78.38c0-1.17.95-2.13,2.12-2.13h1.62c1.17,0,2.12.96,2.12,2.13v10.98l-5.86-3.7v-7.28Z"/>
    <path class="cls-1" d="M95.34,78.38v10.98l-5.86-3.7v-7.28c0-1.17.95-2.13,2.12-2.13h1.62c1.17,0,2.12.96,2.12,2.13Z"/>
  </g>
</svg>