<?xml version="1.0" encoding="UTF-8"?>
<svg id="Calque_2" data-name="Calque 2" xmlns="http://www.w3.org/2000/svg" viewBox="0 0 334.78 125.84">
  <defs>
    <style>
      .cls-1 {
        fill: #f2f2f2;
      }
    </style>
  </defs>
  <g>
    <path d="M235.11,19.4h-4.16c-4,0-7.25,3.25-7.25,7.25v19.73l5.4,3.41,7.86,4.97,5.4,3.41v-31.52c0-4-3.25-7.25-7.25-7.25ZM241.36,56.35l-4.4-2.78-1-.63-5.86-3.7-1-.63-4.4-2.78v-19.18c0-3.45,2.81-6.25,6.25-6.25h4.16c3.45,0,6.25,2.8,6.25,6.25v29.7Z"/>
    <path class="cls-1" d="M241.36,26.65v29.7l-4.4-2.78v-11.59c0-1.72-1.4-3.12-3.12-3.12h-1.62c-1.72,0-3.12,1.4-3.12,3.12v6.63l-4.4-2.78v-19.18c0-3.45,2.81-6.25,6.25-6.25h4.16c3.45,0,6.25,2.8,6.25,6.25Z"/>
  </g>
  <g>
    <path d="M233.84,38.86h-1.62c-1.72,0-3.12,1.4-3.12,3.12v7.84l7.86,4.96v-12.8c0-1.72-1.4-3.12-3.12-3.12ZM235.96,52.97l-5.86-3.7v-7.29c0-1.17.95-2.12,2.12-2.12h1.62c1.17,0,2.12.95,2.12,2.12v10.99Z"/>
    <path class="cls-1" d="M235.96,41.98v10.96l-5.86-3.7v-7.26c0-1.17.95-2.12,2.12-2.12h1.62c1.17,0,2.12.95,2.12,2.12Z"/>
  </g>
  <g>
    <path d="M311.6,67.67h-4.16c-4,0-7.25,3.25-7.25,7.25v19.73l18.66,11.78v-31.51c0-4-3.25-7.25-7.25-7.25ZM317.85,104.62l-4.4-2.78-7.86-4.96-4.4-2.78v-19.18c0-3.45,2.81-6.25,6.25-6.25h4.16c3.45,0,6.25,2.8,6.25,6.25v29.7Z"/>
    <path class="cls-1" d="M317.85,74.92v29.7l-4.4-2.78v-11.7c0-1.72-1.4-3.13-3.12-3.13h-1.62c-1.72,0-3.12,1.41-3.12,3.13v6.74l-4.4-2.78v-19.18c0-3.45,2.81-6.25,6.25-6.25h4.16c3.45,0,6.25,2.8,6.25,6.25Z"/>
  </g>
  <g>
    <path d="M310.33,87.01h-1.62c-1.72,0-3.12,1.41-3.12,3.13v7.83l7.86,4.97v-12.8c0-1.72-1.4-3.13-3.12-3.13ZM306.59,90.14c0-1.17.95-2.13,2.12-2.13h1.62c1.17,0,2.12.96,2.12,2.13v10.98l-5.86-3.7v-7.28Z"/>
    <path class="cls-1" d="M312.45,90.14v10.98l-5.86-3.7v-7.28c0-1.17.95-2.13,2.12-2.13h1.62c1.17,0,2.12.96,2.12,2.13Z"/>
  </g>
  <g>
    <path d="M103.82,19.4h-4.16c-4,0-7.25,3.25-7.25,7.25v31.52l5.4-3.41,7.86-4.97,5.4-3.41v-19.73c0-4-3.25-7.25-7.25-7.25ZM110.07,45.83l-4.4,2.78-1,.63-5.86,3.7-1,.63-4.4,2.78v-29.7c0-3.45,2.8-6.25,6.25-6.25h4.16c3.45,0,6.25,2.8,6.25,6.25v19.18Z"/>
    <path class="cls-1" d="M110.07,26.65v19.18l-4.4,2.78v-6.63c0-1.72-1.4-3.12-3.12-3.12h-1.62c-1.72,0-3.12,1.4-3.12,3.12v11.59l-4.4,2.78v-29.7c0-3.45,2.8-6.25,6.25-6.25h4.16c3.45,0,6.25,2.8,6.25,6.25Z"/>
  </g>
  <g>
    <path d="M102.55,38.86h-1.62c-1.72,0-3.12,1.4-3.12,3.12v12.8l7.86-4.96v-7.84c0-1.72-1.4-3.12-3.12-3.12ZM104.67,49.27l-5.86,3.7v-10.99c0-1.17.95-2.12,2.12-2.12h1.62c1.17,0,2.12.95,2.12,2.12v7.29Z"/>
    <path class="cls-1" d="M104.67,41.98v7.26l-5.86,3.7v-10.96c0-1.17.95-2.12,2.12-2.12h1.62c1.17,0,2.12.95,2.12,2.12Z"/>
  </g>
  <g>
    <path d="M27.33,67.67h-4.16c-4,0-7.25,3.25-7.25,7.25v31.51l18.66-11.78v-19.73c0-4-3.25-7.25-7.25-7.25ZM33.58,94.1l-4.4,2.78-7.86,4.96-4.4,2.78v-29.7c0-3.45,2.8-6.25,6.25-6.25h4.16c3.45,0,6.25,2.8,6.25,6.25v19.18Z"/>
    <path class="cls-1" d="M33.58,74.92v19.18l-4.4,2.78v-6.74c0-1.72-1.4-3.13-3.12-3.13h-1.62c-1.72,0-3.12,1.41-3.12,3.13v11.7l-4.4,2.78v-29.7c0-3.45,2.8-6.25,6.25-6.25h4.16c3.45,0,6.25,2.8,6.25,6.25Z"/>
  </g>
  <g>
    <path d="M26.06,87.01h-1.62c-1.72,0-3.12,1.41-3.12,3.13v12.8l7.86-4.97v-7.83c0-1.72-1.4-3.13-3.12-3.13ZM22.32,90.14c0-1.17.95-2.13,2.12-2.13h1.62c1.17,0,2.12.96,2.12,2.13v7.28l-5.86,3.7v-10.98Z"/>
    <path class="cls-1" d="M28.18,90.14v7.28l-5.86,3.7v-10.98c0-1.17.95-2.13,2.12-2.13h1.62c1.17,0,2.12.96,2.12,2.13Z"/>
  </g>
</svg>