<?xml version="1.0" encoding="UTF-8"?>
<svg id="Calque_2" data-name="Calque 2" xmlns="http://www.w3.org/2000/svg" viewBox="0 0 111.86 102.31">
  <defs>
    <style>
      .cls-1 {
        fill: #f2f2f2;
      }
    </style>
  </defs>
  <g>
    <path d="M96.25,7.64h-4.16c-4,0-7.25,3.25-7.25,7.25v31.52l5.4-3.41,7.86-4.97,5.4-3.41V14.89c0-4-3.25-7.25-7.25-7.25ZM102.5,34.07l-4.4,2.78-1,.63-5.86,3.7-1,.63-4.4,2.78V14.89c0-3.45,2.8-6.25,6.25-6.25h4.16c3.45,0,6.25,2.8,6.25,6.25v19.18Z"/>
    <path class="cls-1" d="M102.5,14.89v19.18l-4.4,2.78v-6.63c0-1.72-1.4-3.12-3.12-3.12h-1.62c-1.72,0-3.12,1.4-3.12,3.12v11.59l-4.4,2.78V14.89c0-3.45,2.8-6.25,6.25-6.25h4.16c3.45,0,6.25,2.8,6.25,6.25Z"/>
  </g>
  <g>
    <path d="M94.98,27.1h-1.62c-1.72,0-3.12,1.4-3.12,3.12v12.8l7.86-4.96v-7.84c0-1.72-1.4-3.12-3.12-3.12ZM97.1,37.51l-5.86,3.7v-10.99c0-1.17.95-2.12,2.12-2.12h1.62c1.17,0,2.12.95,2.12,2.12v7.29Z"/>
    <path class="cls-1" d="M97.1,30.22v7.26l-5.86,3.7v-10.96c0-1.17.95-2.12,2.12-2.12h1.62c1.17,0,2.12.95,2.12,2.12Z"/>
  </g>
  <g>
    <path d="M19.76,55.91h-4.16c-4,0-7.25,3.25-7.25,7.25v31.51l18.66-11.78v-19.73c0-4-3.25-7.25-7.25-7.25ZM26.01,82.34l-4.4,2.78-7.86,4.96-4.4,2.78v-29.7c0-3.45,2.8-6.25,6.25-6.25h4.16c3.45,0,6.25,2.8,6.25,6.25v19.18Z"/>
    <path class="cls-1" d="M26.01,63.16v19.18l-4.4,2.78v-6.74c0-1.72-1.4-3.13-3.12-3.13h-1.62c-1.72,0-3.12,1.41-3.12,3.13v11.7l-4.4,2.78v-29.7c0-3.45,2.8-6.25,6.25-6.25h4.16c3.45,0,6.25,2.8,6.25,6.25Z"/>
  </g>
  <g>
    <path d="M18.49,75.25h-1.62c-1.72,0-3.12,1.41-3.12,3.13v12.8l7.86-4.97v-7.83c0-1.72-1.4-3.13-3.12-3.13ZM14.75,78.38c0-1.17.95-2.13,2.12-2.13h1.62c1.17,0,2.12.96,2.12,2.13v7.28l-5.86,3.7v-10.98Z"/>
    <path class="cls-1" d="M20.61,78.38v7.28l-5.86,3.7v-10.98c0-1.17.95-2.13,2.12-2.13h1.62c1.17,0,2.12.96,2.12,2.13Z"/>
  </g>
</svg>