<?xml version="1.0" encoding="UTF-8"?>
<svg id="Calque_2" data-name="Calque 2" xmlns="http://www.w3.org/2000/svg" viewBox="0 0 81.3 78.42">
  <defs>
    <style>
      .cls-1 {
        fill: #f2f2f2;
      }

      .cls-2 {
        fill: #231f20;
      }
    </style>
  </defs>
  <path class="cls-2" d="M40.65,9.74c-10.58,0-21.05,42.97-21.05,58.45v.5h42.1v-.5c0-15.48-10.47-58.45-21.05-58.45ZM20.6,67.69c.22-16.56,11.01-56.95,20.05-56.95s19.83,40.39,20.05,56.95H20.6Z"/>
  <path class="cls-1" d="M40.65,10.74c-9.04,0-19.83,40.39-20.05,56.95h40.1c-.22-16.56-11.01-56.95-20.05-56.95ZM50.47,35.4c-.13.08-.34.18-.6.18-.29,0-.66-.12-1.08-.48-1.52-1.31-6.7-6.83-8.14-8.38-1.44,1.55-6.63,7.07-8.14,8.38-.42.36-.79.48-1.08.48-.27,0-.47-.1-.61-.18-1.22-.79-1.08-3.85-.31-6.46.59-1.98,3-8.34,9.64-8.65v-.03h1v.03c6.64.31,9.05,6.67,9.64,8.65.77,2.61.91,5.67-.32,6.46Z"/>
  <path class="cls-2" d="M50.79,28.94c-.59-1.98-3-8.34-9.64-8.65v-.03h-1v.03c-6.64.31-9.05,6.67-9.64,8.65-.77,2.61-.91,5.67.31,6.46.14.08.34.18.61.18.29,0,.66-.12,1.08-.48,1.51-1.31,6.7-6.83,8.14-8.38,1.44,1.55,6.62,7.07,8.14,8.38.42.36.79.48,1.08.48.26,0,.47-.1.6-.18,1.23-.79,1.09-3.85.32-6.46ZM40.15,25.79c-.96,1.03-6.74,7.21-8.29,8.55-.17.15-.39.28-.49.22-.43-.28-.78-2.36.1-5.33.54-1.82,2.72-7.65,8.68-7.96v4.52ZM49.93,34.56c-.1.06-.32-.07-.49-.22-1.55-1.34-7.33-7.52-8.29-8.55v-4.52c5.96.31,8.14,6.14,8.68,7.96.88,2.97.53,5.05.1,5.33Z"/>
  <path class="cls-1" d="M40.15,21.27v4.52c-.96,1.03-6.74,7.21-8.29,8.55-.17.15-.39.28-.49.22-.43-.28-.78-2.36.1-5.33.54-1.82,2.72-7.65,8.68-7.96Z"/>
  <path class="cls-1" d="M49.93,34.56c-.1.06-.32-.07-.49-.22-1.55-1.34-7.33-7.52-8.29-8.55v-4.52c5.96.31,8.14,6.14,8.68,7.96.88,2.97.53,5.05.1,5.33Z"/>
</svg>