<?xml version="1.0" encoding="UTF-8"?>
<svg id="Calque_1" data-name="Calque 1" xmlns="http://www.w3.org/2000/svg" viewBox="0 0 413.19 353.07">
  <defs>
    <style>
      .cls-1 {
        fill: #e8e8e8;
      }
    </style>
  </defs>
  <path class="cls-1" d="M.28,222.05c.28-3.22,1.49-8.52,2.32-11.81,5.83-23.36,21.93-40.82,43.28-51.16-2.3-70.29,58.08-124.49,128.02-111.18,26.25,5,48.05,19.79,64.98,40,11.64-4.25,22.7-10.18,35.34-11.18,50.08-3.97,92.17,31.7,93.57,82.35,72.15,32.74,54.19,140.12-24.97,146.97l-98.03-.07c-1.86-14.54-10.42-27.96-22.52-36-3.95-2.62-11.31-4.96-13.88-7.11-2.05-1.71-3.13-5.26-4.79-7.32-10.41-12.94-24.22-22.56-40.97-25.21-4.13-.65-10.29-.24-14.11-1.22-2.08-.53-11.8-7.84-16.18-9.64-32.48-13.36-68.93.53-82.43,33.26-1.16,2.82-2.71,10.47-4.07,12.08s-8.71,5.23-11.26,7.3c-4.27,3.48-7.57,8.11-11.34,12.08l-8.3-9.42c-6.88-9.93-13.46-25.37-14.67-37.4-.41-4.01-.35-11.29,0-15.34Z"/>
  <path class="cls-1" d="M139.59,242.51c.98.86,1.58,3.25,3.2,3.56,16.83-3.8,35.01,2.01,45.91,15.53,2.42,3,6.72,12.82,8.02,13.78,1.7,1.26,9.7,2.9,13.1,4.65,34.23,17.66,21.67,71.34-17.06,72.05-40.84-2.52-85.5,3.25-125.9-.05-44.51-3.63-48.18-64.71-5.61-75.03.46-42.13,46.38-62.44,78.34-34.49Z"/>
  <path class="cls-1" d="M307.41,12.4c.99.88,2.43,4.14,3.9,4.29,22.1-6.12,46.13,7.48,53.03,29.18,30.2,4.35,44.72,38.88,24.02,62.71-1.92,2.2-12.82,11.8-15.24,10.06-21.56-47.91-81.25-71.59-129.45-48.52-7.47-7.15-15.08-14.2-23.91-19.66l9.53-2.97c1.16-9.71,2.2-18.29,7.56-26.76,15.57-24.61,49.39-27.23,70.58-8.34Z"/>
</svg>