<?xml version="1.0" encoding="UTF-8"?>
<svg id="Calque_2" data-name="Calque 2" xmlns="http://www.w3.org/2000/svg" viewBox="0 0 68.33 150.88">
  <defs>
    <style>
      .cls-1 {
        fill: #f2f2f2;
      }

      .cls-2 {
        fill: #231f20;
      }
    </style>
  </defs>
  <path class="cls-2" d="M12.81,8.19v.5c0,33.09,12.66,103.05,20.88,132.28l.48,1.71.48-1.71c8.21-29.23,20.88-99.19,20.88-132.28v-.5H12.81ZM34.17,138.96C26.01,108.99,13.93,41.75,13.81,9.19h40.72c-.13,32.56-12.2,99.8-20.36,129.77Z"/>
  <path class="cls-1" d="M13.81,9.19c.12,32.56,12.2,99.8,20.36,129.77,8.16-29.97,20.23-97.21,20.36-129.77H13.81ZM34.16,131.54l-.47-1.41c-.04-.12-4.06-12.25-4.06-26.92s3.99-61.24,4.03-61.71h1c.04.47,4.04,47.11,4.04,61.71s-4.02,26.8-4.06,26.92l-.48,1.41Z"/>
  <path class="cls-2" d="M34.66,41.5h-1c-.04.47-4.03,47.11-4.03,61.71s4.02,26.8,4.06,26.92l.47,1.41.48-1.41c.04-.12,4.06-12.25,4.06-26.92s-4-61.24-4.04-61.71ZM34.16,128.24c-1.06-3.71-3.53-13.58-3.53-25.03s2.45-42.54,3.53-55.66c1.08,13.12,3.54,44.24,3.54,55.66s-2.47,21.32-3.54,25.03Z"/>
  <path class="cls-1" d="M37.7,103.21c0,11.45-2.47,21.32-3.54,25.03-1.06-3.71-3.53-13.58-3.53-25.03s2.45-42.54,3.53-55.66c1.08,13.12,3.54,44.24,3.54,55.66Z"/>
</svg>