<?xml version="1.0" encoding="UTF-8"?>
<svg id="Calque_2" data-name="Calque 2" xmlns="http://www.w3.org/2000/svg" viewBox="0 0 161.78 156.73">
  <defs>
    <style>
      .cls-1 {
        fill: #f2f2f2;
      }

      .cls-2 {
        fill: #231f20;
      }
    </style>
  </defs>
  <g>
    <g>
      <path class="cls-2" d="M61.53,13.59v1c.07,18.64,4.04,48.6,8.97,76.47.05.34.12.68.18,1.02,1.18,6.69,2.42,13.24,3.67,19.48.07.33.14.67.21,1,.66,3.31,1.33,6.52,2,9.61h.01c.06.33.13.66.21.99,1.96,9.06,3.9,17.04,5.63,23.21l.48,1.71.48-1.71c1.73-6.17,3.66-14.15,5.63-23.21.07-.33.14-.66.21-.99.67-3.09,1.34-6.3,2.01-9.61.06-.33.13-.67.2-1,1.25-6.24,2.49-12.79,3.68-19.48.06-.34.12-.68.18-1.02,4.92-27.87,8.9-57.83,8.97-76.47v-1h-42.72ZM94.35,90.62c-1.24,7.06-2.55,13.99-3.87,20.56-.75,3.76-1.51,7.41-2.27,10.9l-.04.19-.03.12c-1.82,8.44-3.61,15.95-5.25,21.97-1.64-6.02-3.43-13.53-5.25-21.97l-.07-.31c-.76-3.49-1.52-7.14-2.27-10.9-1.32-6.57-2.63-13.5-3.87-20.56-4.89-27.73-8.83-57.5-8.9-76.03h40.72c-.07,18.53-4.01,48.3-8.9,76.03Z"/>
      <path class="cls-1" d="M62.53,14.59c.07,18.53,4.01,48.3,8.9,76.03h.01l4,20.5,2.2,11.27c1.82,8.44,3.61,15.95,5.25,21.97,1.64-6.02,3.43-13.53,5.25-21.97l.03-.12.04-.19,2.13-10.96,4-20.5h.01c4.89-27.73,8.83-57.5,8.9-76.03h-40.72ZM83.36,135.53l-.48,1.41-.47-1.41c-.04-.12-4.06-12.25-4.06-26.92s4-61.24,4.04-61.71h.99c.04.47,4.04,47.1,4.04,61.71s-4.02,26.8-4.06,26.92Z"/>
    </g>
    <g>
      <path class="cls-2" d="M83.38,46.9h-.99c-.04.47-4.04,47.1-4.04,61.71s4.02,26.8,4.06,26.92l.47,1.41.48-1.41c.04-.12,4.06-12.25,4.06-26.92s-4-61.24-4.04-61.71ZM82.88,133.64c-1.05-3.71-3.53-13.58-3.53-25.03s2.46-42.54,3.53-55.66c1.09,13.12,3.54,44.24,3.54,55.66s-2.47,21.32-3.54,25.03Z"/>
      <path class="cls-1" d="M86.42,108.61c0,11.45-2.47,21.32-3.54,25.03-1.05-3.71-3.53-13.58-3.53-25.03s2.46-42.54,3.53-55.66c1.09,13.12,3.54,44.24,3.54,55.66Z"/>
    </g>
  </g>
  <g>
    <g>
      <path class="cls-2" d="M95.28,91.06c-.12-.06-.24-.11-.36-.17l-.57-.27h-.01l-4,20.5-2.13,10.96-.04.19-.03.12-.09.48.95.29,55.23,17.02.65.2,6.42,1.98.65.2v-.68c0-16.21-19.07-33.3-56.67-50.82ZM144.88,139.33l-1-.3h0s-54.67-16.86-54.67-16.86h-.01l2.08-10.67,3.79-19.43s.02,0,.03,0c36.52,17.05,55.3,33.57,55.84,49.12l-6.06-1.87Z"/>
      <path class="cls-1" d="M144.88,139.33v-6l-53.46-21.77c1.25-6.24,2.49-12.79,3.68-19.48,36.52,17.05,55.3,33.57,55.84,49.12l-6.06-1.87Z"/>
    </g>
    <g>
      <path class="cls-2" d="M91.42,111.56l-.14-.06-.8-.32-.14-.06-2.13,10.96-.04.19-.03.12-.09.48.95.29,55.23,17.02.65.2v-7.05l-53.46-21.77ZM89.21,122.17h-.01l1.89-9.66.13.05,52.66,21.44v5.03l-54.67-16.86Z"/>
      <path class="cls-1" d="M143.88,134v5.02l-54.67-16.85c.67-3.09,1.34-6.3,2.01-9.61l52.66,21.44Z"/>
    </g>
    <g>
      <path class="cls-2" d="M77.64,122.39l-.07-.31-2.13-10.96-4-20.5h-.01l-.57.27c-.12.06-.24.11-.36.17-37.6,17.52-56.67,34.61-56.67,50.82v.68l7.07-2.18,55.88-17.22.52-.16.43-.13-.09-.48ZM76.56,122.17l-54.66,16.85h0s-1,.31-1,.31l-6.06,1.87c.54-15.55,19.31-32.07,55.84-49.12.01,0,.02,0,.03,0l3.78,19.44.2,1,1.88,9.66h-.01Z"/>
      <path class="cls-1" d="M74.35,111.56l-53.45,21.77v6l-6.06,1.87c.54-15.55,19.31-32.07,55.84-49.12,1.18,6.69,2.42,13.24,3.67,19.48Z"/>
    </g>
    <g>
      <path class="cls-2" d="M77.64,122.39l-2.2-11.27-.14.06-.81.33-.14.05-53.45,21.77v7.05l55.88-17.22.52-.16.43-.13-.09-.48ZM76.56,122.17l-54.66,16.86v-5.03l52.66-21.44.13-.05,1.88,9.66h-.01Z"/>
      <path class="cls-1" d="M76.56,122.17l-54.66,16.85v-5.02l52.66-21.44c.66,3.31,1.33,6.52,2,9.61Z"/>
    </g>
  </g>
</svg>