<svg width="40" height="40" viewBox="0 0 40 40" fill="none" xmlns="http://www.w3.org/2000/svg">
<path d="M34.7313 12.3354C35.3813 11.6854 35.3813 10.6354 34.7313 9.98542L30.0146 5.26875C29.3646 4.61875 28.3146 4.61875 27.6646 5.26875L20.1813 12.7521L13.6979 6.26875C12.3979 4.96875 10.2813 4.96875 8.98125 6.26875L5.81458 9.43542C4.51458 10.7354 4.51458 12.8521 5.81458 14.1521L12.2979 20.6354L4.78125 28.1521V35.2188H11.8479L19.3813 27.6854L25.8646 34.1688C27.4479 35.7521 29.5813 35.1688 30.5813 34.1688L33.7479 31.0021C35.0479 29.7021 35.0479 27.5854 33.7479 26.2854L27.2646 19.8021L34.7313 12.3354ZM8.18125 11.7854L11.3313 8.61875L13.4479 10.7354L11.4813 12.7187L13.8313 15.0687L15.8146 13.0854L17.8146 15.0854L14.6479 18.2521L8.18125 11.7854ZM26.8979 24.1854L24.9146 26.1687L27.2646 28.5187L29.2479 26.5354L31.3646 28.6521L28.1979 31.8187L21.7146 25.3354L24.8813 22.1687L26.8979 24.1854ZM10.4646 31.8854H8.11458V29.5354L24.1313 13.5187L26.4813 15.8687L10.4646 31.8854ZM26.4813 11.1521L28.8313 8.80208L31.1813 11.1521L28.8313 13.5021L26.4813 11.1521Z" fill="#13C7C4"/>
</svg>
